<?xml version="1.0" encoding="UTF-8"?>
<svg id="Icons" xmlns="http://www.w3.org/2000/svg" viewBox="0 0 107.05 107.05">
  <defs>
    <style>
      .cls-1 {
        fill: none;
        stroke: #3d3c3c;
        stroke-miterlimit: 10;
        stroke-width: 1.85px;
      }

      .cls-2 {
        fill: #ff462d;
        stroke-width: 0px;
      }
    </style>
  </defs>
  <line class="cls-1" x1="86.67" y1="39.71" x2="20.7" y2="39.71"/>
  <line class="cls-1" x1="85.75" y1="66.74" x2="21.62" y2="66.74"/>
  <rect class="cls-2" x="66.11" y="50.51" width="6.18" height="5.95" transform="translate(122.69 -15.72) rotate(90)"/>
  <rect class="cls-2" x="50.31" y="50.51" width="6.18" height="5.95" transform="translate(106.88 .09) rotate(90)"/>
  <rect class="cls-2" x="35.45" y="50.51" width="6.18" height="5.95" transform="translate(92.02 14.94) rotate(90)"/>
  <rect class="cls-2" x="19.73" y="50.51" width="6.18" height="5.95" transform="translate(76.31 30.66) rotate(90)"/>
  <g>
    <rect class="cls-2" x="81.14" y="24.4" width="6.18" height="5.95" transform="translate(111.61 -56.86) rotate(90)"/>
    <rect class="cls-2" x="51.08" y="24.4" width="6.18" height="5.95" transform="translate(81.55 -26.8) rotate(90)"/>
    <rect class="cls-2" x="35.71" y="24.4" width="6.18" height="5.95" transform="translate(66.17 -11.42) rotate(90)"/>
    <rect class="cls-2" x="20.16" y="24.4" width="6.18" height="5.95" transform="translate(50.63 4.12) rotate(90)"/>
  </g>
  <g>
    <rect class="cls-2" x="20.16" y="76.7" width="6.18" height="5.95" transform="translate(-56.43 102.93) rotate(-90)"/>
    <rect class="cls-2" x="50.22" y="76.7" width="6.18" height="5.95" transform="translate(-26.37 132.99) rotate(-90)"/>
    <rect class="cls-2" x="65.59" y="76.7" width="6.18" height="5.95" transform="translate(-10.99 148.37) rotate(-90)"/>
    <rect class="cls-2" x="81.14" y="76.7" width="6.18" height="5.95" transform="translate(4.55 163.91) rotate(-90)"/>
  </g>
</svg>