<?xml version="1.0" encoding="UTF-8"?>
<svg id="Icons" xmlns="http://www.w3.org/2000/svg" viewBox="0 0 107.05 107.05">
  <defs>
    <style>
      .cls-1 {
        fill: #3d3c3c;
      }

      .cls-1, .cls-2 {
        stroke-width: 0px;
      }

      .cls-2 {
        fill: #ff462d;
      }
    </style>
  </defs>
  <path class="cls-1" d="m52.36,72.52s.08-.08.12-.12"/>
  <path class="cls-1" d="m51.6,30.35v1.93h23.17v38.62c0,2.13-1.73,3.86-3.86,3.86h0s-11.59,0-11.59,0h0c-1.07,0-2.03-.43-2.73-1.13l-1.37,1.37c1.05,1.05,2.5,1.7,4.1,1.7h11.59c3.2,0,5.79-2.59,5.79-5.79V30.35h-25.11Z"/>
  <path class="cls-1" d="m51.6,70.91c0,2.13-1.73,3.86-3.86,3.86h0s-11.59,0-11.59,0h0c-2.13,0-3.86-1.73-3.86-3.86v-27.04h7.72v-1.93h-9.66v28.97h0c0,3.2,2.59,5.79,5.79,5.79h11.59c3.2,0,5.79-2.59,5.79-5.79h0v-9.66h-1.93v9.66Z"/>
  <rect class="cls-1" x="38.08" y="49.66" width="1.93" height="5.79"/>
  <rect class="cls-1" x="38.08" y="61.25" width="1.93" height="5.79"/>
  <rect class="cls-1" x="43.87" y="61.25" width="1.93" height="5.79"/>
  <rect class="cls-1" x="67.05" y="49.66" width="1.93" height="5.79"/>
  <rect class="cls-1" x="67.05" y="38.08" width="1.93" height="5.79"/>
  <rect class="cls-1" x="61.25" y="61.25" width="1.93" height="5.79"/>
  <rect class="cls-1" x="67.05" y="61.25" width="1.93" height="5.79"/>
  <g>
    <path class="cls-2" d="m54.92,47.31h-5.54c-2.23,0-4.05-1.82-4.05-4.05s1.82-4.05,4.05-4.05h11.23v1.5h-11.23c-1.41,0-2.55,1.15-2.55,2.55s1.15,2.55,2.55,2.55h5.54v1.5Z"/>
    <path class="cls-2" d="m57.31,53.91h-11.23v-1.5h11.23c1.41,0,2.55-1.15,2.55-2.55s-1.15-2.55-2.55-2.55h-5.79v-1.5h5.79c2.23,0,4.05,1.82,4.05,4.05s-1.82,4.05-4.05,4.05Z"/>
  </g>
  <g>
    <rect class="cls-2" x="53.54" y="35.54" width="1.55" height="3.74"/>
    <rect class="cls-2" x="53.54" y="53.82" width="1.55" height="3.74"/>
  </g>
</svg>