<?xml version="1.0" encoding="UTF-8"?>
<svg id="Icons" xmlns="http://www.w3.org/2000/svg" viewBox="0 0 107.05 107.05">
  <defs>
    <style>
      .cls-1 {
        fill: #3d3c3c;
      }

      .cls-1, .cls-2 {
        stroke-width: 0px;
      }

      .cls-2 {
        fill: #ff462d;
      }
    </style>
  </defs>
  <polyline class="cls-2" points="68.54 48.34 67.79 50.17 54.95 50.17 51.79 50.17 42.33 50.16 35.29 50.16 36.06 48.36"/>
  <polyline class="cls-2" points="36.03 56.9 55.48 56.9 55.48 56.9 66.89 56.91 66.19 58.74 55.89 58.73 55.9 58.7 36.64 58.7 36.64 58.71 35.36 58.71"/>
  <g>
    <path class="cls-1" d="m42.13,55.48h-1.83c-.03-.48-.04-.97-.05-1.45,0-.82.05-1.65.11-2.45h1.83c-.06.8-.1,1.65-.11,2.45,0,.48.02.97.05,1.45Z"/>
    <path class="cls-1" d="m71.61,74.61c-2.49,1.61-6.12,2.41-9.84,2.41s-7.85-.86-10.76-2.58c-5.07-3-8.7-8.18-10.09-14.35h1.89c1.34,5.5,4.62,10.1,9.14,12.78,5.1,3.02,14.18,3.12,18.67.21l1,1.54Z"/>
    <path class="cls-1" d="m42.98,46.95h-1.9c1.51-5.89,5.07-10.81,9.96-13.7,6.15-3.63,15.5-4.88,20.72-.05l-1.24,1.35c-3.41-3.15-11.07-4.13-18.55.28-4.35,2.56-7.54,6.91-8.99,12.12Z"/>
  </g>
</svg>