<?xml version="1.0" encoding="UTF-8"?>
<svg id="Icons" xmlns="http://www.w3.org/2000/svg" viewBox="0 0 107.05 107.05">
  <defs>
    <style>
      .cls-1 {
        fill: #3d3c3c;
      }

      .cls-1, .cls-2 {
        stroke-width: 0px;
      }

      .cls-2 {
        fill: #ff462d;
      }
    </style>
  </defs>
  <path class="cls-1" d="m52.36,72.52s.08-.08.12-.12"/>
  <path class="cls-2" d="m53.74,49.48h-3.62c.48,1.82,1.58,3.34,3.08,4.22,1.69,1,4.82,1.05,6.3.09l.38-.24.85,1.31-.37.24c-.94.61-2.3.95-3.82.95s-3.06-.36-4.13-1c-1.96-1.16-3.36-3.18-3.89-5.57h-2.26s.58-1.55.58-1.55h1.47c-.02-.23-.02-.46-.02-.68,0-.3.02-.6.04-.89h-2.05l.66-1.55h1.6c.54-2.35,1.94-4.34,3.88-5.49,2.37-1.4,6-1.86,8.06.04l.33.3-1.06,1.15-.33-.3c-1.12-1.03-3.67-1.33-6.2.16-1.47.87-2.56,2.36-3.06,4.14h9.54s-.63,1.56-.63,1.56h-9.17c-.02.29-.04.59-.04.89,0,.22.01.45.03.67h9.13s-.6,1.57-.6,1.57l-4.66-.02Z"/>
  <path class="cls-1" d="m51.6,30.35v1.93h23.17v38.62c0,2.13-1.73,3.86-3.86,3.86h0s-11.59,0-11.59,0h0c-1.07,0-2.03-.43-2.73-1.13l-1.37,1.37c1.05,1.05,2.5,1.7,4.1,1.7h11.59c3.2,0,5.79-2.59,5.79-5.79V30.35h-25.11Z"/>
  <path class="cls-1" d="m51.6,70.91c0,2.13-1.73,3.86-3.86,3.86h0s-11.59,0-11.59,0h0c-2.13,0-3.86-1.73-3.86-3.86v-27.04h7.72v-1.93h-9.66v28.97h0c0,3.2,2.59,5.79,5.79,5.79h11.59c3.2,0,5.79-2.59,5.79-5.79h0v-9.66h-1.93v9.66Z"/>
  <rect class="cls-1" x="38.08" y="49.66" width="1.93" height="5.79"/>
  <rect class="cls-1" x="38.08" y="61.25" width="1.93" height="5.79"/>
  <rect class="cls-1" x="43.87" y="61.25" width="1.93" height="5.79"/>
  <rect class="cls-1" x="67.05" y="49.66" width="1.93" height="5.79"/>
  <rect class="cls-1" x="67.05" y="38.08" width="1.93" height="5.79"/>
  <rect class="cls-1" x="61.25" y="61.25" width="1.93" height="5.79"/>
  <rect class="cls-1" x="67.05" y="61.25" width="1.93" height="5.79"/>
</svg>