<?xml version="1.0" encoding="UTF-8"?>
<svg id="Icons" xmlns="http://www.w3.org/2000/svg" viewBox="0 0 107.05 107.05">
  <defs>
    <style>
      .cls-1 {
        fill: #3d3c3c;
      }

      .cls-1, .cls-2 {
        stroke-width: 0px;
      }

      .cls-2 {
        fill: #ff462d;
      }
    </style>
  </defs>
  <path class="cls-2" d="m59.49,54.75c-.08.05-1.94,1.24-3.83.92-.62-.1-1.11-.26-1.59-.41-.78-.25-1.45-.47-2.64-.37-1.49.11-2.34.62-2.57.78l-.56.39-.51-.49c-.28-.29-.32-.74-.09-1.07,1.32-1.83,2.74-4.4,3.01-6.39h-2.36v-1.63h2.3c-.49-3.17-.76-5.3.25-6.86.55-.85,1.73-1.83,3.25-1.83.04,0,.08,0,.12,0,1.11.04,2.74.63,4.2,3.23l-1.42.8c-.86-1.54-1.84-2.37-2.84-2.41-.84-.03-1.6.54-1.96,1.08-.7,1.08-.43,3.04.03,5.98h3.58v1.63h-3.52c-.19,1.82-1.13,3.8-2,5.29.29-.06.61-.1.95-.13,1.5-.12,2.4.17,3.26.45.43.14.85.27,1.36.36,1.26.21,2.67-.67,2.68-.68l.88,1.37Z"/>
  <path class="cls-1" d="m51.6,30.35v1.93h23.17v38.62c0,2.13-1.73,3.86-3.86,3.86h0s-11.59,0-11.59,0h0c-1.07,0-2.03-.43-2.73-1.13l-1.37,1.37c1.05,1.05,2.5,1.7,4.1,1.7h11.59c3.2,0,5.79-2.59,5.79-5.79V30.35h-25.11Z"/>
  <path class="cls-1" d="m51.6,70.91c0,2.13-1.73,3.86-3.86,3.86h0s-11.59,0-11.59,0h0c-2.13,0-3.86-1.73-3.86-3.86v-27.04h7.72v-1.93h-9.66v28.97h0c0,3.2,2.59,5.79,5.79,5.79h11.59c3.2,0,5.79-2.59,5.79-5.79h0v-9.66h-1.93v9.66Z"/>
  <rect class="cls-1" x="38.08" y="49.66" width="1.93" height="5.79"/>
  <rect class="cls-1" x="38.08" y="61.25" width="1.93" height="5.79"/>
  <rect class="cls-1" x="43.87" y="61.25" width="1.93" height="5.79"/>
  <rect class="cls-1" x="67.05" y="49.66" width="1.93" height="5.79"/>
  <rect class="cls-1" x="67.05" y="38.08" width="1.93" height="5.79"/>
  <rect class="cls-1" x="61.25" y="61.25" width="1.93" height="5.79"/>
  <rect class="cls-1" x="67.05" y="61.25" width="1.93" height="5.79"/>
</svg>