<?xml version="1.0" encoding="UTF-8"?>
<svg id="Icons" xmlns="http://www.w3.org/2000/svg" viewBox="0 0 107.05 107.05">
  <defs>
    <style>
      .cls-1 {
        stroke: #3d3c3c;
      }

      .cls-1, .cls-2 {
        fill: none;
        stroke-miterlimit: 10;
        stroke-width: 1.85px;
      }

      .cls-2 {
        stroke: #ff462d;
      }
    </style>
  </defs>
  <polyline class="cls-2" points="39.39 48.27 39.39 52.5 46.11 59.22 46.11 70.05 49.84 72.85"/>
  <polyline class="cls-2" points="45.51 40.2 45.51 49.6 50.16 54.25 50.16 85.54"/>
  <line class="cls-2" x1="53.63" y1="44.94" x2="53.63" y2="85.55"/>
  <polyline class="cls-2" points="61.54 40.2 61.54 49.6 56.89 54.25 56.89 85.55"/>
  <ellipse class="cls-2" cx="39.39" cy="45.83" rx="2.45" ry="2.43" transform="translate(-20.85 41.05) rotate(-44.79)"/>
  <ellipse class="cls-2" cx="45.51" cy="37.75" rx="2.45" ry="2.43" transform="translate(-13.39 43.02) rotate(-44.79)"/>
  <ellipse class="cls-2" cx="61.54" cy="37.75" rx="2.43" ry="2.45" transform="translate(-8.61 54.84) rotate(-45.21)"/>
  <ellipse class="cls-2" cx="53.54" cy="41.95" rx="2.43" ry="2.45" transform="translate(-13.95 50.4) rotate(-45.21)"/>
  <path class="cls-1" d="m77.85,74.33l-9.06-3.06-7.16,4.15-1.88,9.48h-12.47l-1.88-9.38-7.13-4.15-9.09,2.96-6.23-10.56,7.18-6.34v-8.27l-7.18-6.52,6.23-10.56,9.06,3.06,7.16-4.15,1.88-9.48h12.47l1.88,9.38,7.13,4.15,9.09-2.96,6.23,10.56-7.18,6.34v8.27l7.18,6.52-6.23,10.56Z"/>
  <polyline class="cls-2" points="67.66 48.27 67.66 52.5 60.94 59.22 60.94 70.05 57.21 72.85"/>
  <ellipse class="cls-2" cx="67.66" cy="45.83" rx="2.43" ry="2.45" transform="translate(-12.53 61.57) rotate(-45.21)"/>
</svg>