<?xml version="1.0" encoding="UTF-8"?>
<svg id="Icons" xmlns="http://www.w3.org/2000/svg" viewBox="0 0 107.05 107.05">
  <defs>
    <style>
      .cls-1 {
        stroke: #3d3c3c;
      }

      .cls-1, .cls-2 {
        fill: none;
        stroke-miterlimit: 10;
        stroke-width: 1.85px;
      }

      .cls-2 {
        stroke: #ff462d;
      }
    </style>
  </defs>
  <g>
    <line class="cls-1" x1="44.91" y1="79.22" x2="64.03" y2="79.22"/>
    <line class="cls-1" x1="47.51" y1="84.28" x2="61.43" y2="84.28"/>
    <path class="cls-1" d="m75.06,44.7c0-11.37-9.22-20.59-20.59-20.59s-20.59,9.22-20.59,20.59c0,7.85,3.55,14.67,10.02,18.15h0l1.93,11.31h17.38l1.85-11.31h0c6.46-3.47,10.02-10.3,10.02-18.15Z"/>
  </g>
  <circle class="cls-2" cx="84.86" cy="27.88" r="5.1"/>
  <circle class="cls-2" cx="22.19" cy="56.29" r="5.1"/>
  <circle class="cls-2" cx="54.46" cy="46.99" r="5.1"/>
  <line class="cls-2" x1="59.72" y1="46.58" x2="80.32" y2="30.82"/>
  <polyline class="cls-2" points="26.27 53.3 26.42 53.18 41.06 40.92 49.56 46.25"/>
</svg>