<?xml version="1.0" encoding="UTF-8"?>
<svg id="Icons" xmlns="http://www.w3.org/2000/svg" viewBox="0 0 107.05 107.05">
  <defs>
    <style>
      .cls-1 {
        stroke: #3d3c3c;
      }

      .cls-1, .cls-2 {
        fill: none;
        stroke-miterlimit: 10;
        stroke-width: 1.85px;
      }

      .cls-2 {
        stroke: #ff462d;
      }
    </style>
  </defs>
  <g>
    <g>
      <g>
        <line class="cls-1" x1="44.32" y1="62.74" x2="22.98" y2="84.07"/>
        <polyline class="cls-1" points="37.04 84.64 22.42 84.64 22.42 70.01"/>
      </g>
      <g>
        <line class="cls-1" x1="62.74" y1="44.32" x2="84.07" y2="22.98"/>
        <polyline class="cls-1" points="70.01 22.42 84.64 22.42 84.64 37.04"/>
      </g>
      <g>
        <line class="cls-1" x1="44.32" y1="44.32" x2="22.98" y2="22.98"/>
        <polyline class="cls-1" points="22.42 37.04 22.42 22.42 37.04 22.42"/>
      </g>
      <g>
        <line class="cls-1" x1="62.74" y1="62.74" x2="84.07" y2="84.07"/>
        <polyline class="cls-1" points="84.64 70.01 84.64 84.64 70.01 84.64"/>
      </g>
    </g>
    <circle class="cls-2" cx="53.53" cy="53.53" r="6.35"/>
  </g>
  <g>
    <g>
      <line class="cls-1" x1="53.53" y1="60.93" x2="53.53" y2="78.27"/>
      <polyline class="cls-1" points="59.47 72.79 53.53 78.73 47.58 72.79"/>
    </g>
    <g>
      <line class="cls-1" x1="53.53" y1="45.97" x2="53.53" y2="28.63"/>
      <polyline class="cls-1" points="47.58 34.11 53.53 28.17 59.47 34.11"/>
    </g>
    <g>
      <line class="cls-1" x1="46.04" y1="53.45" x2="28.7" y2="53.45"/>
      <polyline class="cls-1" points="34.19 59.39 28.24 53.45 34.19 47.51"/>
    </g>
    <g>
      <line class="cls-1" x1="61.01" y1="53.45" x2="78.35" y2="53.45"/>
      <polyline class="cls-1" points="72.87 47.51 78.81 53.45 72.87 59.39"/>
    </g>
  </g>
</svg>