<?xml version="1.0" encoding="UTF-8"?>
<svg id="Icons" xmlns="http://www.w3.org/2000/svg" viewBox="0 0 107.05 107.05">
  <defs>
    <style>
      .cls-1 {
        stroke: #3d3c3c;
        stroke-width: 1.85px;
      }

      .cls-1, .cls-2 {
        fill: none;
        stroke-miterlimit: 10;
      }

      .cls-2 {
        stroke: #ff462d;
        stroke-width: 2.22px;
      }
    </style>
  </defs>
  <path class="cls-1" d="m53.53,76.78v6.16c0,3.43-2.78,6.21-6.21,6.21h-22.58c-3.43,0-6.21-2.78-6.21-6.21v-44.79h17.5"/>
  <g>
    <line class="cls-1" x1="27" y1="56.54" x2="27" y2="47.48"/>
    <line class="cls-1" x1="36.03" y1="56.54" x2="36.03" y2="47.48"/>
  </g>
  <g>
    <line class="cls-1" x1="27" y1="76.78" x2="27" y2="67.73"/>
    <line class="cls-1" x1="36.03" y1="76.78" x2="36.03" y2="67.73"/>
    <line class="cls-1" x1="45.05" y1="76.78" x2="45.05" y2="67.73"/>
  </g>
  <path class="cls-1" d="m53.53,17.9h35v65.03c0,3.43-2.78,6.21-6.21,6.21h-22.58c-3.43,0-6.21-2.78-6.21-6.21"/>
  <g>
    <line class="cls-1" x1="71.03" y1="56.54" x2="71.03" y2="47.48"/>
    <line class="cls-1" x1="80.05" y1="56.54" x2="80.05" y2="47.48"/>
  </g>
  <g>
    <line class="cls-1" x1="71.03" y1="36.29" x2="71.03" y2="27.24"/>
    <line class="cls-1" x1="80.05" y1="36.29" x2="80.05" y2="27.24"/>
  </g>
  <g>
    <line class="cls-1" x1="62.01" y1="76.78" x2="62.01" y2="67.73"/>
    <line class="cls-1" x1="71.03" y1="76.78" x2="71.03" y2="67.73"/>
    <line class="cls-1" x1="80.05" y1="76.78" x2="80.05" y2="67.73"/>
  </g>
  <g>
    <g>
      <path class="cls-2" d="m64.78,35.23h-17.39c-2.83,0-5.12,2.29-5.12,5.12h0c0,2.83,2.29,5.12,5.12,5.12h8.59"/>
      <path class="cls-2" d="m42.27,55.7h17.39c2.83,0,5.12-2.29,5.12-5.12h0c0-2.83-2.29-5.12-5.12-5.12h-8.96"/>
    </g>
    <line class="cls-2" x1="53.53" y1="28.62" x2="53.53" y2="35.23"/>
    <line class="cls-2" x1="53.53" y1="55.86" x2="53.53" y2="62.46"/>
  </g>
</svg>