<?xml version="1.0" encoding="utf-8"?>
<!-- Generator: Adobe Illustrator 25.2.3, SVG Export Plug-In . SVG Version: 6.00 Build 0)  -->
<svg version="1.1" id="Living_Trellis" xmlns="http://www.w3.org/2000/svg" xmlns:xlink="http://www.w3.org/1999/xlink" x="0px"
	 y="0px" viewBox="0 0 1931.89539 1075.32617" enable-background="new 0 0 1931.89539 1075.32617" xml:space="preserve">
<g>
	
		<line fill="none" stroke="#FF462D" stroke-width="2" stroke-miterlimit="10" x1="483.44769" y1="0.40961" x2="483.44769" y2="1075.00708"/>
	
		<line fill="none" stroke="#FF462D" stroke-width="2" stroke-miterlimit="10" x1="121.57271" y1="0.40961" x2="121.57271" y2="1075.00708"/>
	
		<line fill="none" stroke="#FF462D" stroke-width="2" stroke-miterlimit="10" x1="242.19771" y1="0.40961" x2="242.19771" y2="1075.00708"/>
	
		<line fill="none" stroke="#FF462D" stroke-width="2" stroke-miterlimit="10" x1="362.82269" y1="0.40961" x2="362.82269" y2="1075.00708"/>
	
		<line fill="none" stroke="#FF462D" stroke-width="2" stroke-miterlimit="10" x1="604.07269" y1="0.40961" x2="604.07269" y2="1075.00708"/>
	
		<line fill="none" stroke="#FF462D" stroke-width="2" stroke-miterlimit="10" x1="724.69769" y1="0.40961" x2="724.69769" y2="1075.00708"/>
	
		<line fill="none" stroke="#FF462D" stroke-width="2" stroke-miterlimit="10" x1="845.32269" y1="0.40961" x2="845.32269" y2="1075.00708"/>
	
		<line fill="none" stroke="#FF462D" stroke-width="2" stroke-miterlimit="10" x1="965.94769" y1="0.40961" x2="965.94769" y2="1075.00708"/>
	
		<line fill="none" stroke="#FF462D" stroke-width="2" stroke-miterlimit="10" x1="1086.57275" y1="0.40961" x2="1086.57275" y2="1075.00708"/>
	
		<line fill="none" stroke="#FF462D" stroke-width="2" stroke-miterlimit="10" x1="1207.19775" y1="0.40961" x2="1207.19775" y2="1075.00708"/>
	
		<line fill="none" stroke="#FF462D" stroke-width="2" stroke-miterlimit="10" x1="1327.82275" y1="0.40961" x2="1327.82275" y2="1075.00708"/>
	
		<line fill="none" stroke="#FF462D" stroke-width="2" stroke-miterlimit="10" x1="1448.44775" y1="0.40961" x2="1448.44775" y2="1075.00708"/>
	
		<line fill="none" stroke="#FF462D" stroke-width="2" stroke-miterlimit="10" x1="1569.07275" y1="0.40961" x2="1569.07275" y2="1075.00708"/>
	
		<line fill="none" stroke="#FF462D" stroke-width="2" stroke-miterlimit="10" x1="1689.69775" y1="0.40961" x2="1689.69775" y2="1075.00708"/>
	
		<line fill="none" stroke="#FF462D" stroke-width="2" stroke-miterlimit="10" x1="1810.32275" y1="0.40961" x2="1810.32275" y2="1075.00708"/>
	
		<line fill="none" stroke="#FF462D" stroke-width="2" stroke-miterlimit="10" x1="242.19771" y1="0.40961" x2="0.94771" y2="537.70831"/>
	
		<line fill="none" stroke="#FF462D" stroke-width="2" stroke-miterlimit="10" x1="362.82269" y1="0.40961" x2="121.57271" y2="537.70831"/>
	
		<line fill="none" stroke="#FF462D" stroke-width="2" stroke-miterlimit="10" x1="483.44769" y1="0.40961" x2="242.19771" y2="537.70831"/>
	
		<line fill="none" stroke="#FF462D" stroke-width="2" stroke-miterlimit="10" x1="604.07269" y1="0.40961" x2="362.82269" y2="537.70831"/>
	
		<line fill="none" stroke="#FF462D" stroke-width="2" stroke-miterlimit="10" x1="724.69769" y1="0.40961" x2="483.44769" y2="537.70831"/>
	
		<line fill="none" stroke="#FF462D" stroke-width="2" stroke-miterlimit="10" x1="845.32269" y1="0.40961" x2="604.07269" y2="537.70831"/>
	
		<line fill="none" stroke="#FF462D" stroke-width="2" stroke-miterlimit="10" x1="965.94769" y1="0.40961" x2="724.69769" y2="537.70831"/>
	
		<line fill="none" stroke="#FF462D" stroke-width="2" stroke-miterlimit="10" x1="1086.57275" y1="0.40961" x2="845.32269" y2="537.70831"/>
	
		<line fill="none" stroke="#FF462D" stroke-width="2" stroke-miterlimit="10" x1="1207.19775" y1="0.40961" x2="965.94769" y2="537.70831"/>
	
		<line fill="none" stroke="#FF462D" stroke-width="2" stroke-miterlimit="10" x1="1327.82275" y1="0.40961" x2="1086.57275" y2="537.70831"/>
	
		<line fill="none" stroke="#FF462D" stroke-width="2" stroke-miterlimit="10" x1="1448.44775" y1="0.40961" x2="1207.19775" y2="537.70831"/>
	
		<line fill="none" stroke="#FF462D" stroke-width="2" stroke-miterlimit="10" x1="1569.07275" y1="0.40961" x2="1327.82275" y2="537.70831"/>
	
		<line fill="none" stroke="#FF462D" stroke-width="2" stroke-miterlimit="10" x1="1689.69775" y1="0.40961" x2="1448.44775" y2="537.70831"/>
	
		<line fill="none" stroke="#FF462D" stroke-width="2" stroke-miterlimit="10" x1="1810.32275" y1="0.40961" x2="1569.07275" y2="537.70831"/>
	
		<line fill="none" stroke="#FF462D" stroke-width="2" stroke-miterlimit="10" x1="1930.94775" y1="0.40961" x2="1689.69775" y2="537.70831"/>
	
		<line fill="none" stroke="#FF462D" stroke-width="2" stroke-miterlimit="10" x1="1930.94775" y1="269.05896" x2="1810.32275" y2="537.70831"/>
	
		<line fill="none" stroke="#FF462D" stroke-width="2" stroke-miterlimit="10" x1="242.19771" y1="1075.00708" x2="61.26021" y2="537.70831"/>
	
		<line fill="none" stroke="#FF462D" stroke-width="2" stroke-miterlimit="10" x1="121.57271" y1="1075.00708" x2="0.94771" y2="716.80792"/>
	
		<line fill="none" stroke="#FF462D" stroke-width="2" stroke-miterlimit="10" x1="362.82269" y1="1075.00708" x2="181.88521" y2="537.70831"/>
	
		<line fill="none" stroke="#FF462D" stroke-width="2" stroke-miterlimit="10" x1="483.44769" y1="1075.00708" x2="302.51019" y2="537.70831"/>
	
		<line fill="none" stroke="#FF462D" stroke-width="2" stroke-miterlimit="10" x1="604.07269" y1="1075.00708" x2="423.13519" y2="537.70831"/>
	
		<line fill="none" stroke="#FF462D" stroke-width="2" stroke-miterlimit="10" x1="724.69769" y1="1075.00708" x2="543.76019" y2="537.70831"/>
	
		<line fill="none" stroke="#FF462D" stroke-width="2" stroke-miterlimit="10" x1="845.32269" y1="1075.00708" x2="664.38519" y2="537.70831"/>
	
		<line fill="none" stroke="#FF462D" stroke-width="2" stroke-miterlimit="10" x1="965.94769" y1="1075.00708" x2="785.01019" y2="537.70831"/>
	
		<line fill="none" stroke="#FF462D" stroke-width="2" stroke-miterlimit="10" x1="1086.57275" y1="1075.00708" x2="905.63519" y2="537.70831"/>
	
		<line fill="none" stroke="#FF462D" stroke-width="2" stroke-miterlimit="10" x1="1207.19775" y1="1075.00708" x2="1026.26025" y2="537.70831"/>
	
		<line fill="none" stroke="#FF462D" stroke-width="2" stroke-miterlimit="10" x1="1327.82275" y1="1075.00708" x2="1146.88525" y2="537.70831"/>
	
		<line fill="none" stroke="#FF462D" stroke-width="2" stroke-miterlimit="10" x1="1448.44775" y1="1075.00708" x2="1267.51025" y2="537.70831"/>
	
		<line fill="none" stroke="#FF462D" stroke-width="2" stroke-miterlimit="10" x1="1569.07275" y1="1075.00708" x2="1388.13525" y2="537.70831"/>
	
		<line fill="none" stroke="#FF462D" stroke-width="2" stroke-miterlimit="10" x1="1689.69775" y1="1075.00708" x2="1508.76025" y2="537.70831"/>
	
		<line fill="none" stroke="#FF462D" stroke-width="2" stroke-miterlimit="10" x1="1810.32275" y1="1075.00708" x2="1629.38525" y2="537.70831"/>
	
		<line fill="none" stroke="#FF462D" stroke-width="2" stroke-miterlimit="10" x1="1930.94775" y1="1075.00708" x2="1750.01025" y2="537.70831"/>
	
		<line fill="none" stroke="#FF462D" stroke-width="2" stroke-miterlimit="10" x1="1930.94775" y1="716.80792" x2="1870.63525" y2="537.70831"/>
	
		<line fill="none" stroke="#FF462D" stroke-width="2" stroke-miterlimit="10" x1="121.57271" y1="0.40961" x2="0.94771" y2="269.05896"/>
</g>
</svg>
