<?xml version="1.0" encoding="UTF-8"?>
<svg id="Icons" xmlns="http://www.w3.org/2000/svg" viewBox="0 0 107.05 107.05">
  <defs>
    <style>
      .cls-1 {
        stroke: #3d3c3c;
      }

      .cls-1, .cls-2 {
        fill: none;
        stroke-miterlimit: 10;
        stroke-width: 1.85px;
      }

      .cls-2 {
        stroke: #ff462d;
      }

      .cls-3 {
        fill: #3d3c3c;
        stroke-width: 0px;
      }
    </style>
  </defs>
  <path class="cls-3" d="m71.92,76.19h13.15c6.52,0,11.82-5.3,11.82-11.82s-5.29-11.81-11.8-11.82l-1.03.06.02-1.04c.04-.6.07-1.21.07-1.83,0-14.58-11.86-26.45-26.45-26.45-11.98,0-22.49,8.08-25.56,19.65l-.24.89-.89-.24c-1.39-.37-2.83-.56-4.27-.56-9.14,0-16.58,7.44-16.58,16.58s7.44,16.58,16.58,16.58h10.71l1.85,1.85h-12.56c-10.16,0-18.42-8.26-18.42-18.42s8.26-18.42,18.42-18.42c1.3,0,2.59.14,3.86.41,3.57-11.91,14.59-20.15,27.1-20.15,15.6,0,28.29,12.69,28.29,28.3,0,.33,0,.66-.02.99,7.12.47,12.76,6.41,12.76,13.64s-6.13,13.67-13.67,13.67h-15"/>
  <path class="cls-1" d="m85.05,77.11c7.04,0,12.74-5.71,12.74-12.74s-5.71-12.74-12.74-12.74c-3.52,0-6.7,1.43-9.01,3.73"/>
  <g>
    <line class="cls-2" x1="55.02" y1="49.3" x2="55.02" y2="84.93"/>
    <polyline class="cls-2" points="65.75 74.88 55.02 85.61 44.29 74.88"/>
  </g>
</svg>