<?xml version="1.0" encoding="UTF-8"?>
<svg id="Icons" xmlns="http://www.w3.org/2000/svg" viewBox="0 0 107.05 107.05">
  <defs>
    <style>
      .cls-1 {
        stroke: #3d3c3c;
      }

      .cls-1, .cls-2 {
        fill: none;
        stroke-miterlimit: 10;
        stroke-width: 1.85px;
      }

      .cls-2 {
        stroke: #ff462d;
      }
    </style>
  </defs>
  <path class="cls-1" d="m85.12,80.97l-11.77-3.98-9.3,5.39-2.44,12.31h-16.19l-2.44-12.18-9.26-5.39-11.8,3.84-8.1-13.72,9.33-8.23v-10.74l-9.33-8.47,8.1-13.72,11.77,3.98,9.3-5.39,2.44-12.31h16.19l2.44,12.18,9.26,5.39,11.8-3.84,8.1,13.72-9.33,8.23v10.74l9.33,8.47-8.1,13.72Z"/>
  <g>
    <line class="cls-2" x1="53.31" y1="58.3" x2="53.31" y2="32.15"/>
    <polyline class="cls-1" points="63.97 65.12 68.87 70.02 63.97 74.91"/>
    <g>
      <polyline class="cls-1" points="38.63 52.12 33.73 47.23 38.63 42.33"/>
      <path class="cls-1" d="m33.73,47.23l8.2.02c6.29,0,11.39,5.1,11.39,11.39h0c0,6.29,4.43,11.39,10.72,11.39h4.84"/>
    </g>
    <polyline class="cls-2" points="48.4 37.04 53.3 32.14 58.2 37.04"/>
  </g>
</svg>