<?xml version="1.0" encoding="UTF-8"?>
<svg id="Icons" xmlns="http://www.w3.org/2000/svg" viewBox="0 0 107.05 107.05">
  <defs>
    <style>
      .cls-1 {
        stroke: #3d3c3c;
      }

      .cls-1, .cls-2 {
        fill: none;
        stroke-miterlimit: 10;
        stroke-width: 1.85px;
      }

      .cls-2 {
        stroke: #ff462d;
      }

      .cls-3 {
        fill: #3d3c3c;
        stroke-width: 0px;
      }
    </style>
  </defs>
  <path class="cls-3" d="m32.64,70.04l-10.22-10.22c-4.3-4.3-6.67-10.03-6.67-16.11s2.37-11.81,6.67-16.11c8.67-8.67,22.65-8.88,31.57-.63,2.22-2.06,4.79-3.63,7.63-4.66.53-.19,1.07-.37,1.61-.52v1.92s-.65.21-.98.33c-2.87,1.05-5.43,2.68-7.61,4.86l-.65.65-.65-.65c-8.16-8.16-21.45-8.16-29.61,0-3.96,3.95-6.13,9.21-6.13,14.81s2.18,10.85,6.13,14.8l8.9,8.9,20.57-20.57,6.78,6.78-1.31,1.31-5.47-5.47-20.56,20.58Z"/>
  <path class="cls-1" d="m80.26,63.81l4.65-4.65c7-7,8.26-17.56,3.79-25.84-.45-.84-.97-1.66-1.54-2.44-.42-.58-.88-1.15-1.37-1.7-.28-.32-.58-.63-.88-.93-1.19-1.19-2.48-2.21-3.85-3.07"/>
  <polyline class="cls-2" points="47.03 83.12 53.99 90.08 75.35 68.72"/>
  <rect class="cls-2" x="36.97" y="73.06" width="11.79" height="11.79" rx="5.89" ry="5.89"/>
  <rect class="cls-1" x="57.54" y="52.49" width="11.79" height="11.79" rx="5.89" ry="5.89"/>
  <rect class="cls-1" x="69.45" y="16.97" width="11.79" height="11.79" rx="5.89" ry="5.89"/>
</svg>