<?xml version="1.0" encoding="UTF-8"?>
<svg id="Icons" xmlns="http://www.w3.org/2000/svg" viewBox="0 0 107.05 107.05">
  <defs>
    <style>
      .cls-1 {
        stroke: #3d3c3c;
      }

      .cls-1, .cls-2 {
        fill: none;
        stroke-miterlimit: 10;
        stroke-width: 1.85px;
      }

      .cls-2 {
        stroke: #ff462d;
      }
    </style>
  </defs>
  <path class="cls-1" d="m25.63,76.14c2.15,1.08,4.58,1.69,7.15,1.69h53.08c6.4,0,11.6-5.19,11.6-11.6s-5.19-11.6-11.6-11.6c-.02,0-.04,0-.07,0,.04-.57.07-1.14.07-1.72,0-2.12-.27-4.18-.77-6.15"/>
  <path class="cls-1" d="m76.85,33.75c-4.31-3.58-9.86-5.74-15.9-5.74-11.54,0-21.24,7.85-24.07,18.5-1.31-.35-2.68-.54-4.1-.54-8.79,0-15.92,7.13-15.92,15.92,0,.18,0,.35,0,.53"/>
  <path class="cls-1" d="m85.84,77.83c6.4,0,11.6-5.19,11.6-11.6s-5.19-11.6-11.6-11.6-11.6,5.19-11.6,11.6"/>
  <line class="cls-2" x1="59.58" y1="50.61" x2="81.6" y2="39.33"/>
  <line class="cls-2" x1="21.32" y1="69.71" x2="47.74" y2="56.67"/>
  <circle class="cls-2" cx="86.82" cy="36.41" r="6.22"/>
  <circle class="cls-2" cx="15.82" cy="72.82" r="6.22"/>
  <circle class="cls-2" cx="53.69" cy="53.7" r="6.22"/>
</svg>