<?xml version="1.0" encoding="UTF-8"?>
<svg id="Icons" xmlns="http://www.w3.org/2000/svg" viewBox="0 0 107.05 107.05">
  <defs>
    <style>
      .cls-1 {
        stroke: #3d3c3c;
      }

      .cls-1, .cls-2 {
        fill: none;
        stroke-miterlimit: 10;
        stroke-width: 1.85px;
      }

      .cls-2 {
        stroke: #ff462d;
      }
    </style>
  </defs>
  <g>
    <g>
      <line class="cls-1" x1="83.88" y1="27.31" x2="99.1" y2="12.28"/>
      <polyline class="cls-1" points="94.22 12.05 99.3 12.08 99.27 17.16"/>
    </g>
    <g>
      <line class="cls-1" x1="23.02" y1="27.47" x2="7.98" y2="12.25"/>
      <polyline class="cls-1" points="7.76 17.13 7.79 12.05 12.87 12.08"/>
    </g>
    <g>
      <line class="cls-1" x1="84.04" y1="79.59" x2="99.07" y2="94.81"/>
      <polyline class="cls-1" points="99.3 89.92 99.27 95.01 94.18 94.97"/>
    </g>
    <g>
      <line class="cls-1" x1="23.17" y1="79.59" x2="7.95" y2="94.62"/>
      <polyline class="cls-1" points="12.84 94.85 7.76 94.82 7.79 89.73"/>
    </g>
  </g>
  <g>
    <path class="cls-1" d="m50.27,42.04h-3.78c-3.24,0-5.87,2.63-5.87,5.87s2.63,5.87,5.87,5.87h3.8"/>
    <line class="cls-1" x1="66.44" y1="42.04" x2="56.79" y2="42.04"/>
    <path class="cls-1" d="m56.79,65.52h3.78c3.24,0,5.87-2.63,5.87-5.87h0c0-3.24-2.63-5.87-5.87-5.87h-3.78"/>
    <line class="cls-1" x1="40.61" y1="65.52" x2="50.27" y2="65.52"/>
    <line class="cls-2" x1="53.53" y1="34.45" x2="53.53" y2="72.6"/>
  </g>
</svg>