<?xml version="1.0" encoding="UTF-8"?>
<svg id="Icons" xmlns="http://www.w3.org/2000/svg" viewBox="0 0 107.05 107.05">
  <defs>
    <style>
      .cls-1 {
        stroke: #3d3c3c;
      }

      .cls-1, .cls-2 {
        fill: none;
        stroke-miterlimit: 10;
        stroke-width: 1.85px;
      }

      .cls-2 {
        stroke: #ff462d;
      }
    </style>
  </defs>
  <g>
    <path class="cls-1" d="m23.98,14.71h-3.81c-3.27,0-5.91,2.65-5.91,5.91s2.65,5.91,5.91,5.91h3.83"/>
    <line class="cls-1" x1="40.28" y1="14.71" x2="30.55" y2="14.71"/>
    <path class="cls-1" d="m30.55,38.37h3.81c3.27,0,5.91-2.65,5.91-5.91h0c0-3.27-2.65-5.91-5.91-5.91h-3.81"/>
    <line class="cls-1" x1="14.26" y1="38.37" x2="23.98" y2="38.37"/>
    <line class="cls-2" x1="27.27" y1="7.07" x2="27.27" y2="45.5"/>
  </g>
  <g>
    <line class="cls-1" x1="88.55" y1="99.98" x2="88.68" y2="23.32"/>
    <polyline class="cls-1" points="84.51 27.12 88.68 23 92.8 27.17"/>
  </g>
  <g>
    <line class="cls-1" x1="71.16" y1="99.98" x2="71.3" y2="37.88"/>
    <polyline class="cls-1" points="67.13 41.67 71.3 37.56 75.41 41.73"/>
  </g>
  <g>
    <line class="cls-1" x1="53.78" y1="99.98" x2="53.91" y2="52.77"/>
    <polyline class="cls-1" points="49.75 56.57 53.92 52.45 58.03 56.62"/>
  </g>
  <g>
    <line class="cls-1" x1="36.4" y1="99.98" x2="36.53" y2="60.9"/>
    <polyline class="cls-1" points="32.36 64.7 36.53 60.58 40.65 64.75"/>
  </g>
  <g>
    <line class="cls-1" x1="19.02" y1="99.98" x2="19.15" y2="78.64"/>
    <polyline class="cls-1" points="14.98 82.43 19.15 78.32 23.26 82.49"/>
  </g>
</svg>