<?xml version="1.0" encoding="UTF-8"?>
<svg id="Icons" xmlns="http://www.w3.org/2000/svg" viewBox="0 0 107.05 107.05">
  <defs>
    <style>
      .cls-1 {
        fill: #3d3c3c;
      }

      .cls-1, .cls-2 {
        stroke-width: 0px;
      }

      .cls-2 {
        fill: #ff462d;
      }
    </style>
  </defs>
  <path class="cls-1" d="m95.32,75.05s.09-.08.13-.13"/>
  <g>
    <g>
      <path class="cls-1" d="m65.97,37.41l-1.65.93c-2.6-4.45-5.64-6.85-8.82-6.96h-.2c-2.83,0-5.3,1.84-6.49,3.67-2.07,3.19-1.56,8.26-.45,15.57h-1.91c-1.11-7.35-1.65-12.87.78-16.6,1.36-2.09,4.29-4.53,8.05-4.53.1,0,.19,0,.29,0,2.71.09,6.69,1.55,10.4,7.91Z"/>
      <path class="cls-1" d="m69.04,75.11c-1.18.66-4.3,2.22-7.66,2.22-.57,0-1.13-.04-1.66-.14-1.63-.27-2.96-.69-4.24-1.1h-.04s-.03-.02-.03-.02c-1.88-.61-3.66-1.18-6.29-1.18-.52,0-1.07.02-1.63.07-4.38.34-6.97,1.81-7.89,2.43-.17.11-.36.18-.57.18-.27,0-.54-.11-.73-.31-.35-.35-.39-.9-.1-1.3.69-.94,6.64-9.3,8.36-16.79h1.95c-1.04,4.97-3.83,10.19-6.03,13.76l-.79,1.27,1.44-.4c1.31-.37,2.72-.61,4.19-.72.6-.05,1.18-.07,1.74-.07,2.95,0,4.96.64,6.91,1.26h.03s.11.04.11.04c1.25.4,2.43.78,3.91,1.02.42.07.88.11,1.34.11,2.76,0,5.41-1.25,6.64-1.93l1.02,1.59Z"/>
    </g>
    <rect class="cls-2" x="39.52" y="53.95" width="19.99" height="1.89"/>
  </g>
</svg>