<?xml version="1.0" encoding="UTF-8"?>
<svg id="Icons" xmlns="http://www.w3.org/2000/svg" viewBox="0 0 107.05 107.05">
  <defs>
    <style>
      .cls-1 {
        fill: #3d3c3c;
      }

      .cls-1, .cls-2 {
        stroke-width: 0px;
      }

      .cls-2 {
        fill: #ff462d;
      }
    </style>
  </defs>
  <polygon class="cls-2" points="55.01 47.59 58.31 47.59 58.31 49.16 54.38 49.16 54.38 50.61 58.31 50.61 58.31 52.18 54.38 52.18 54.38 55.78 52.81 55.78 52.81 52.18 48.84 52.18 48.84 50.61 52.81 50.61 52.81 49.16 48.84 49.16 48.84 47.59 52.17 47.59 46.28 38.32 48.14 38.32 53.59 46.9 58.93 38.32 60.78 38.32 55.01 47.59"/>
  <path class="cls-1" d="m51.6,30.35v1.93h23.17v38.62c0,2.13-1.73,3.86-3.86,3.86h0s-11.59,0-11.59,0h0c-1.07,0-2.03-.43-2.73-1.13l-1.37,1.37c1.05,1.05,2.5,1.7,4.1,1.7h11.59c3.2,0,5.79-2.59,5.79-5.79V30.35h-25.11Z"/>
  <path class="cls-1" d="m51.6,70.91c0,2.13-1.73,3.86-3.86,3.86h0s-11.59,0-11.59,0h0c-2.13,0-3.86-1.73-3.86-3.86v-27.04h7.72v-1.93h-9.66v28.97h0c0,3.2,2.59,5.79,5.79,5.79h11.59c3.2,0,5.79-2.59,5.79-5.79h0v-9.66h-1.93v9.66Z"/>
  <rect class="cls-1" x="38.08" y="49.66" width="1.93" height="5.79"/>
  <rect class="cls-1" x="38.08" y="61.25" width="1.93" height="5.79"/>
  <rect class="cls-1" x="43.87" y="61.25" width="1.93" height="5.79"/>
  <rect class="cls-1" x="67.05" y="49.66" width="1.93" height="5.79"/>
  <rect class="cls-1" x="67.05" y="38.08" width="1.93" height="5.79"/>
  <rect class="cls-1" x="61.25" y="61.25" width="1.93" height="5.79"/>
  <rect class="cls-1" x="67.05" y="61.25" width="1.93" height="5.79"/>
</svg>