<?xml version="1.0" encoding="UTF-8"?>
<svg id="Icons" xmlns="http://www.w3.org/2000/svg" viewBox="0 0 107.05 107.05">
  <defs>
    <style>
      .cls-1 {
        stroke: #3d3c3c;
      }

      .cls-1, .cls-2 {
        fill: none;
        stroke-miterlimit: 10;
        stroke-width: 1.85px;
      }

      .cls-2 {
        stroke: #ff462d;
      }
    </style>
  </defs>
  <g>
    <polyline class="cls-1" points="54.79 63.45 54.79 94.19 86.91 94.19"/>
    <line class="cls-2" x1="63.05" y1="85.53" x2="65.63" y2="85.53"/>
    <line class="cls-2" x1="66.72" y1="75.72" x2="69.3" y2="75.72"/>
    <line class="cls-2" x1="69.56" y1="80.83" x2="72.14" y2="80.83"/>
    <line class="cls-2" x1="72.37" y1="72.46" x2="74.95" y2="72.46"/>
    <line class="cls-2" x1="77.3" y1="80.83" x2="79.88" y2="80.83"/>
    <line class="cls-2" x1="78.35" y1="72.46" x2="80.93" y2="72.46"/>
  </g>
  <g>
    <polyline class="cls-1" points="10.51 18.63 10.51 49.38 42.63 49.38"/>
    <polyline class="cls-2" points="11.88 42.27 21.52 42.27 33.45 29.65 42.63 27.64"/>
  </g>
  <line class="cls-2" x1="10.51" y1="94.69" x2="10.51" y2="78.29"/>
  <line class="cls-2" x1="20.95" y1="94.69" x2="20.95" y2="73.24"/>
  <line class="cls-2" x1="31.69" y1="94.69" x2="31.69" y2="67.23"/>
  <line class="cls-2" x1="42.63" y1="94.69" x2="42.63" y2="62.67"/>
  <g>
    <polyline class="cls-2" points="70.85 21.62 70.85 37.59 86.48 37.59"/>
    <circle class="cls-1" cx="70.85" cy="36.16" r="15.63"/>
  </g>
</svg>