<?xml version="1.0" encoding="UTF-8"?>
<svg id="Icons" xmlns="http://www.w3.org/2000/svg" viewBox="0 0 107.05 107.05">
  <defs>
    <style>
      .cls-1 {
        stroke: #3d3c3c;
      }

      .cls-1, .cls-2 {
        fill: none;
        stroke-miterlimit: 10;
        stroke-width: 1.85px;
      }

      .cls-2 {
        stroke: #ff462d;
      }
    </style>
  </defs>
  <g>
    <circle class="cls-2" cx="30.87" cy="63.75" r="6.95"/>
    <path class="cls-1" d="m12.94,98.18v-10.65c0-5.49,4.45-9.95,9.95-9.95h15.76c5.49,0,9.95,4.45,9.95,9.95v10.65"/>
    <line class="cls-1" x1="21.95" y1="87.52" x2="21.95" y2="98.18"/>
    <line class="cls-1" x1="40.24" y1="87.52" x2="40.24" y2="98.18"/>
  </g>
  <g>
    <circle class="cls-2" cx="76.38" cy="63.75" r="6.95"/>
    <path class="cls-1" d="m58.46,98.18v-10.65c0-5.49,4.45-9.95,9.95-9.95h15.76c5.49,0,9.95,4.45,9.95,9.95v10.65"/>
    <line class="cls-1" x1="67.46" y1="87.52" x2="67.46" y2="98.18"/>
    <line class="cls-1" x1="85.76" y1="87.52" x2="85.76" y2="98.18"/>
  </g>
  <polygon class="cls-1" points="19.79 20.36 19.79 41.66 50.2 41.66 56.86 48.33 56.86 41.66 56.86 38.77 56.86 20.36 19.79 20.36"/>
  <polygon class="cls-1" points="84.87 8.88 84.87 30.18 52.93 30.18 46.26 36.84 46.26 30.18 46.26 27.29 46.26 8.88 84.87 8.88"/>
  <polyline class="cls-2" points="53.64 23.9 51.06 26.47 49.61 25.01"/>
</svg>