<?xml version="1.0" encoding="UTF-8"?>
<svg id="Icons" xmlns="http://www.w3.org/2000/svg" viewBox="0 0 107.05 107.05">
  <defs>
    <style>
      .cls-1 {
        stroke: #3d3c3c;
      }

      .cls-1, .cls-2 {
        fill: none;
        stroke-miterlimit: 10;
        stroke-width: 1.85px;
      }

      .cls-2 {
        stroke: #ff462d;
      }
    </style>
  </defs>
  <g>
    <polyline class="cls-1" points="41.81 12.12 45.6 14.38 43.35 18.17"/>
    <polyline class="cls-1" points="62.6 88.88 60.35 92.69 64.15 94.94"/>
    <path class="cls-1" d="M56.75,13.72c20.49,1.64,36.61,18.79,36.61,39.71,0,19.68-14.27,36.02-33.02,39.26"/>
    <path class="cls-1" d="M48.77,92.99c-19.76-2.35-35.08-19.17-35.08-39.56,0-19.28,13.7-35.37,31.9-39.05"/>
  </g>
  <circle class="cls-1" cx="53.53" cy="54.69" r="29.42"/>
  <g>
    <path class="cls-1" d="M50.3,43.32h-3.74c-3.21,0-5.81,2.6-5.81,5.81s2.6,5.81,5.81,5.81h3.76"/>
    <line class="cls-1" x1="66.31" y1="43.32" x2="56.75" y2="43.32"/>
    <path class="cls-1" d="M56.75,66.56h3.74c3.21,0,5.81-2.6,5.81-5.81h0c0-3.21-2.6-5.81-5.81-5.81h-3.74"/>
    <line class="cls-1" x1="40.75" y1="66.56" x2="50.3" y2="66.56"/>
    <line class="cls-2" x1="53.53" y1="35.82" x2="53.53" y2="73.56"/>
  </g>
</svg>