<?xml version="1.0" encoding="UTF-8"?>
<svg id="Icons" xmlns="http://www.w3.org/2000/svg" viewBox="0 0 107.05 107.05">
  <defs>
    <style>
      .cls-1 {
        stroke: #3d3c3c;
      }

      .cls-1, .cls-2 {
        fill: none;
        stroke-miterlimit: 10;
        stroke-width: 1.85px;
      }

      .cls-2 {
        stroke: #ff462d;
      }
    </style>
  </defs>
  <g>
    <circle class="cls-2" cx="29.56" cy="64.94" r="5.84"/>
    <path class="cls-1" d="m13.68,95.74v-9.43c0-4.87,3.95-8.81,8.81-8.81h13.96c4.87,0,8.81,3.95,8.81,8.81v9.43"/>
    <line class="cls-1" x1="21.66" y1="86.31" x2="21.66" y2="95.74"/>
    <line class="cls-1" x1="37.74" y1="86.31" x2="37.74" y2="95.74"/>
  </g>
  <g>
    <circle class="cls-2" cx="61.14" cy="64.94" r="5.84"/>
    <path class="cls-1" d="m45.26,95.74v-9.43c0-4.87,3.95-8.81,8.81-8.81h13.96c4.87,0,8.81,3.95,8.81,8.81v9.43"/>
    <line class="cls-1" x1="53.24" y1="86.31" x2="53.24" y2="95.74"/>
    <line class="cls-1" x1="69.32" y1="86.31" x2="69.32" y2="95.74"/>
  </g>
  <g>
    <circle class="cls-2" cx="77.67" cy="17.15" r="5.84"/>
    <path class="cls-1" d="m55.3,29.71h29.27c4.87,0,8.81,3.95,8.81,8.81v10.72"/>
    <polyline class="cls-1" points="69.77 49.24 69.77 38.52 55.3 38.52"/>
    <line class="cls-1" x1="85.85" y1="38.52" x2="85.85" y2="49.24"/>
  </g>
  <polyline class="cls-1" points="57.33 23.9 57.33 11.86 13.68 11.86 13.68 47.95 58.03 47.95"/>
  <line class="cls-2" x1="26.2" y1="23" x2="26.2" y2="39.47"/>
  <line class="cls-2" x1="33.92" y1="28.42" x2="33.92" y2="39.47"/>
  <line class="cls-2" x1="41.63" y1="31.24" x2="41.63" y2="39.47"/>
</svg>