<?xml version="1.0" encoding="UTF-8"?>
<svg id="Icons" xmlns="http://www.w3.org/2000/svg" viewBox="0 0 107.05 107.05">
  <defs>
    <style>
      .cls-1 {
        fill: none;
      }

      .cls-1, .cls-2, .cls-3 {
        stroke-width: 0px;
      }

      .cls-2 {
        fill: #3d3c3c;
      }

      .cls-3 {
        fill: #ff462d;
      }
    </style>
  </defs>
  <path class="cls-1" d="m53.61,94.46c19.45-6.56,32.5-24.72,32.5-45.27v-4.53c-.34.04-.69.07-1.04.09-.13,0-.25,0-.38,0-2.58,0-4.96-.9-6.85-2.4l-13.68,9.37c.18,5.42-4.08,9.97-9.49,10.16-.11,0-.23,0-.34,0-2.5,0-4.87-.93-6.71-2.65-1.18-1.1-2.05-2.45-2.57-3.93l-8.69-2.39-5.83,5.23c.77,1.46,1.22,3.08,1.28,4.78.13,3.87-1.77,7.35-4.73,9.42,5.64,10.19,14.95,18.21,26.54,22.12Z"/>
  <path class="cls-1" d="m21.11,28.85v20.33c0,1.04.04,2.08.11,3.1,1.48.06,2.9.4,4.22,1.02l9.09-8.15,10.79,2.97c.44-1.01,1.05-1.96,1.82-2.79,1.79-1.92,4.23-3.03,6.85-3.11,2.63-.09,5.13.85,7.05,2.64.1.1.2.2.29.3l12.69-8.69c-.2-.76-.32-1.56-.35-2.38-.1-2.94.95-5.75,2.96-7.9.66-.71,1.41-1.31,2.21-1.81l-22.42-13.69L21.11,28.85Z"/>
  <path class="cls-2" d="m86.11,49.18c0,20.56-13.05,38.71-32.5,45.27-11.59-3.91-20.9-11.93-26.54-22.12-.5.35-1.04.67-1.6.93,5.91,10.66,15.68,19.02,27.84,23.04l.29.1.29-.1c20.37-6.73,34.06-25.67,34.06-47.12v-4.94c-.6.19-1.22.33-1.85.41v4.53Z"/>
  <path class="cls-2" d="m21.22,52.29c-.07-1.03-.11-2.06-.11-3.1v-20.33L56.43,10.69l22.42,13.69c.62-.39,1.27-.71,1.96-.97l-24.3-14.83L19.26,27.72v21.46c0,1.07.04,2.12.11,3.17.34-.04.69-.07,1.04-.09.27,0,.54,0,.81.01Z"/>
  <path class="cls-2" d="m78.68,38.6c-.39-.48-.73-1.01-.99-1.56l-14.79,10.17c.31.55.57,1.12.77,1.72l15.02-10.32Z"/>
  <path class="cls-2" d="m44.61,50.59l-9.4-2.58-9.98,8.95c.29.2.57.42.84.67.19.18.38.37.55.57l9.08-8.14,8.82,2.43s0-.07,0-.11c-.02-.6.02-1.2.11-1.78Z"/>
  <path class="cls-3" d="m79.4,39.38c1.45,1.35,3.32,2.09,5.29,2.09.09,0,.18,0,.27,0,4.28-.15,7.64-3.74,7.49-8.02-.15-4.27-3.73-7.61-8.02-7.49-2.07.07-3.99.94-5.41,2.46-1.42,1.51-2.16,3.49-2.09,5.56.04,1.08.29,2.11.74,3.06.26.56.6,1.08.99,1.56.22.27.46.54.72.79Zm-.61-5.47c-.05-1.58.51-3.08,1.59-4.23,1.08-1.15,2.54-1.82,4.12-1.87.07,0,.14,0,.2,0,3.17,0,5.79,2.52,5.9,5.71.11,3.26-2.45,6-5.71,6.11-1.59.06-3.08-.51-4.23-1.59-1.15-1.08-1.82-2.54-1.87-4.12Z"/>
  <path class="cls-3" d="m25.23,56.96c-1.37-.97-3.01-1.47-4.72-1.42-2.07.07-3.99.94-5.41,2.46-1.41,1.51-2.16,3.49-2.08,5.56.07,2.07.94,3.99,2.46,5.41,1.45,1.35,3.32,2.09,5.29,2.09.09,0,.18,0,.27,0,2.07-.07,3.99-.94,5.41-2.46,1.41-1.51,2.16-3.49,2.08-5.56-.06-1.81-.73-3.5-1.91-4.84-.17-.2-.36-.39-.55-.57-.26-.25-.55-.47-.84-.67Zm1.45,6.14c.05,1.58-.51,3.08-1.59,4.23-1.08,1.15-2.54,1.82-4.12,1.87-1.59.07-3.08-.51-4.23-1.59s-1.82-2.54-1.87-4.12c-.05-1.58.51-3.08,1.59-4.23,1.08-1.15,2.54-1.82,4.12-1.87.07,0,.14,0,.21,0,1.5,0,2.93.56,4.03,1.59,1.15,1.08,1.82,2.54,1.87,4.12Z"/>
  <path class="cls-3" d="m54.98,44.31c-4.27-.36-8.02,2.81-8.38,7.08-.36,4.26,2.81,8.02,7.08,8.38.22.02.44.03.66.03,3.98,0,7.38-3.06,7.72-7.1.36-4.26-2.81-8.02-7.08-8.38Zm5.23,8.23c-.27,3.25-3.14,5.67-6.39,5.39-3.25-.27-5.67-3.14-5.39-6.39.26-3.08,2.85-5.41,5.88-5.41.17,0,.33,0,.5.02,3.25.27,5.67,3.14,5.39,6.39Z"/>
</svg>