<?xml version="1.0" encoding="UTF-8"?>
<svg id="Icons" xmlns="http://www.w3.org/2000/svg" viewBox="0 0 107.05 107.05">
  <defs>
    <style>
      .cls-1 {
        stroke: #3d3c3c;
      }

      .cls-1, .cls-2 {
        fill: none;
        stroke-miterlimit: 10;
        stroke-width: 1.85px;
      }

      .cls-2 {
        stroke: #ff462d;
      }
    </style>
  </defs>
  <g>
    <line class="cls-2" x1="92.18" y1="14.34" x2="54.2" y2="51.23"/>
    <line class="cls-2" x1="92.18" y1="27.09" x2="54.2" y2="51.23"/>
    <line class="cls-2" x1="92.18" y1="37.93" x2="54.2" y2="51.23"/>
    <line class="cls-2" x1="92.18" y1="50.68" x2="54.2" y2="51.23"/>
    <line class="cls-2" x1="92.18" y1="63.44" x2="54.2" y2="51.23"/>
    <line class="cls-2" x1="92.18" y1="76.19" x2="54.2" y2="51.23"/>
    <line class="cls-2" x1="92.18" y1="88.95" x2="54.2" y2="51.23"/>
  </g>
  <g>
    <path class="cls-1" d="m16.76,14.34c20.6,0,37.31,16.7,37.31,37.31s-16.7,37.31-37.31,37.31"/>
    <path class="cls-1" d="m16.76,23.73c15.58,0,28.21,12.63,28.21,28.21s-12.63,28.21-28.21,28.21"/>
    <path class="cls-1" d="m16.76,33.05c10.43,0,18.89,8.46,18.89,18.89s-8.46,18.89-18.89,18.89"/>
  </g>
</svg>