<?xml version="1.0" encoding="UTF-8"?>
<svg id="Icons" xmlns="http://www.w3.org/2000/svg" viewBox="0 0 107.05 107.05">
  <defs>
    <style>
      .cls-1 {
        fill: #3d3c3c;
      }

      .cls-1, .cls-2 {
        stroke-width: 0px;
      }

      .cls-2 {
        fill: #ff462d;
      }
    </style>
  </defs>
  <g>
    <polygon class="cls-1" points="95.22 73.47 67.72 73.47 69.57 71.62 95.22 71.62 95.22 73.47"/>
    <rect class="cls-1" x="9.72" y="71.62" width="37.34" height="1.85"/>
    <polygon class="cls-1" points="86.33 83.54 85.03 82.24 94.72 72.55 85.03 62.86 86.33 61.55 97.33 72.55 86.33 83.54"/>
  </g>
  <polygon class="cls-2" points="27.54 63.51 16.54 52.51 17.85 51.21 27.54 60.9 37.23 51.21 38.54 52.51 27.54 63.51"/>
  <path class="cls-2" d="m51.59,73.47v-1.85c12.75,0,23.13-10.38,23.13-23.13s-10.38-23.13-23.13-23.13-23.13,10.38-23.13,23.13v13.71h-1.85v-13.71c0-13.77,11.21-24.98,24.98-24.98s24.98,11.21,24.98,24.98-11.21,24.98-24.98,24.98Z"/>
</svg>