<?xml version="1.0" encoding="UTF-8"?>
<svg id="Icons" xmlns="http://www.w3.org/2000/svg" viewBox="0 0 107.05 107.05">
  <defs>
    <style>
      .cls-1 {
        fill: none;
        stroke: #ff462d;
        stroke-miterlimit: 10;
        stroke-width: 1.85px;
      }

      .cls-2 {
        fill: #3d3c3c;
        stroke-width: 0px;
      }
    </style>
  </defs>
  <path class="cls-2" d="m14.28,43.81c-.11-.9-.16-1.82-.16-2.74,0-6.09,2.37-11.81,6.67-16.11,8.67-8.67,22.65-8.88,31.57-.63,8.92-8.25,22.9-8.04,31.57.63h0c5.14,5.14,7.3,12.14,6.5,18.85m-1.86,0c.82-6.23-1.17-12.77-5.94-17.54-8.16-8.16-21.45-8.16-29.61,0l-.65.65-.65-.65c-4.08-4.08-9.44-6.12-14.81-6.12s-10.72,2.04-14.81,6.12c-4.78,4.78-6.76,11.31-5.94,17.54m68.73,12.36c-.31.35-.62.68-.95,1.01l-31.57,31.57-31.57-31.57c-.33-.33-.65-.67-.96-1.01h2.55s29.97,29.97,29.97,29.97l29.97-29.97"/>
  <polyline class="cls-1" points="9.3 50.16 38.97 50.16 43.9 37.68 55.04 64.8 63.46 42.79 66.21 50.16 97.75 50.16"/>
</svg>