<?xml version="1.0" encoding="UTF-8"?>
<svg id="Icons" xmlns="http://www.w3.org/2000/svg" viewBox="0 0 107.05 107.05">
  <defs>
    <style>
      .cls-1 {
        fill: none;
        stroke: #ff462d;
        stroke-miterlimit: 10;
        stroke-width: 1.85px;
      }

      .cls-2 {
        fill: #3d3c3c;
        stroke-width: 0px;
      }
    </style>
  </defs>
  <path class="cls-2" d="m34.41,62.67c-2.59-4.32-4.08-9.38-4.08-14.77,0-15.9,12.93-28.83,28.83-28.83h28.83v28.83c0,15.89-12.93,28.83-28.83,28.83-5.41,0-10.47-1.5-14.8-4.1l1.4-1.32c3.95,2.27,8.52,3.57,13.4,3.57,14.88,0,26.98-12.1,26.98-26.98v-26.98h-26.98c-14.88,0-26.98,12.1-26.98,26.98,0,4.89,1.31,9.48,3.59,13.44"/>
  <line class="cls-1" x1="58.72" y1="48.33" x2="19.07" y2="87.98"/>
  <line class="cls-1" x1="47.44" y1="59.61" x2="60.91" y2="59.61"/>
  <polygon class="cls-2" points="42.51 52.18 42.51 39.24 44.35 39.24 44.35 50.33 42.51 52.18"/>
  <polygon class="cls-2" points="49.49 45.19 49.49 32.26 51.34 32.26 51.34 43.35 49.49 45.19"/>
</svg>