<?xml version="1.0" encoding="UTF-8"?>
<svg id="Icons" xmlns="http://www.w3.org/2000/svg" viewBox="0 0 107.05 107.05">
  <defs>
    <style>
      .cls-1 {
        stroke: #3d3c3c;
      }

      .cls-1, .cls-2 {
        fill: none;
        stroke-miterlimit: 10;
        stroke-width: 1.85px;
      }

      .cls-2 {
        stroke: #ff462d;
      }
    </style>
  </defs>
  <g>
    <line class="cls-2" x1="27" y1="56.54" x2="27" y2="47.48"/>
    <line class="cls-2" x1="36.03" y1="56.54" x2="36.03" y2="47.48"/>
    <line class="cls-2" x1="45.05" y1="56.54" x2="45.05" y2="47.48"/>
    <line class="cls-1" x1="62.01" y1="56.54" x2="62.01" y2="47.48"/>
  </g>
  <g>
    <line class="cls-2" x1="27" y1="76.78" x2="27" y2="67.73"/>
    <line class="cls-2" x1="36.03" y1="76.78" x2="36.03" y2="67.73"/>
    <line class="cls-2" x1="45.05" y1="76.78" x2="45.05" y2="67.73"/>
  </g>
  <path class="cls-1" d="m47.31,89.15h-22.58c-3.43,0-6.21-2.78-6.21-6.21v-44.79h28.71"/>
  <path class="cls-1" d="m53.53,82.94c0,3.43,2.78,6.21,6.21,6.21h22.58c3.43,0,6.21-2.78,6.21-6.21V17.9h-35v65.03"/>
  <g>
    <line class="cls-1" x1="71.03" y1="56.54" x2="71.03" y2="47.48"/>
    <line class="cls-1" x1="80.05" y1="56.54" x2="80.05" y2="47.48"/>
  </g>
  <g>
    <line class="cls-1" x1="71.03" y1="36.29" x2="71.03" y2="27.24"/>
    <line class="cls-1" x1="62.01" y1="36.29" x2="62.01" y2="27.24"/>
    <line class="cls-1" x1="80.05" y1="36.29" x2="80.05" y2="27.24"/>
  </g>
  <g>
    <line class="cls-1" x1="62.01" y1="76.78" x2="62.01" y2="67.73"/>
    <line class="cls-1" x1="71.03" y1="76.78" x2="71.03" y2="67.73"/>
    <line class="cls-1" x1="80.05" y1="76.78" x2="80.05" y2="67.73"/>
  </g>
</svg>