<?xml version="1.0" encoding="utf-8"?>
<!-- Generator: Adobe Illustrator 26.0.3, SVG Export Plug-In . SVG Version: 6.00 Build 0)  -->
<svg version="1.1" id="Living_Trellis" xmlns="http://www.w3.org/2000/svg" xmlns:xlink="http://www.w3.org/1999/xlink" x="0px"
	 y="0px" viewBox="0 0 1931.9 1075.3" style="enable-background:new 0 0 1931.9 1075.3;" xml:space="preserve">
<style type="text/css">
	.st0{fill:none;stroke:#3D3C3C;stroke-width:2;stroke-miterlimit:10;}
</style>
<g>
	<line class="st0" x1="483.4" y1="0.4" x2="483.4" y2="1075"/>
	<line class="st0" x1="121.6" y1="0.4" x2="121.6" y2="1075"/>
	<line class="st0" x1="242.2" y1="0.4" x2="242.2" y2="1075"/>
	<line class="st0" x1="362.8" y1="0.4" x2="362.8" y2="1075"/>
	<line class="st0" x1="604.1" y1="0.4" x2="604.1" y2="1075"/>
	<line class="st0" x1="724.7" y1="0.4" x2="724.7" y2="1075"/>
	<line class="st0" x1="845.3" y1="0.4" x2="845.3" y2="1075"/>
	<line class="st0" x1="965.9" y1="0.4" x2="965.9" y2="1075"/>
	<line class="st0" x1="1086.6" y1="0.4" x2="1086.6" y2="1075"/>
	<line class="st0" x1="1207.2" y1="0.4" x2="1207.2" y2="1075"/>
	<line class="st0" x1="1327.8" y1="0.4" x2="1327.8" y2="1075"/>
	<line class="st0" x1="1448.4" y1="0.4" x2="1448.4" y2="1075"/>
	<line class="st0" x1="1569.1" y1="0.4" x2="1569.1" y2="1075"/>
	<line class="st0" x1="1689.7" y1="0.4" x2="1689.7" y2="1075"/>
	<line class="st0" x1="1810.3" y1="0.4" x2="1810.3" y2="1075"/>
	<line class="st0" x1="242.2" y1="0.4" x2="0.9" y2="537.7"/>
	<line class="st0" x1="362.8" y1="0.4" x2="121.6" y2="537.7"/>
	<line class="st0" x1="483.4" y1="0.4" x2="242.2" y2="537.7"/>
	<line class="st0" x1="604.1" y1="0.4" x2="362.8" y2="537.7"/>
	<line class="st0" x1="724.7" y1="0.4" x2="483.4" y2="537.7"/>
	<line class="st0" x1="845.3" y1="0.4" x2="604.1" y2="537.7"/>
	<line class="st0" x1="965.9" y1="0.4" x2="724.7" y2="537.7"/>
	<line class="st0" x1="1086.6" y1="0.4" x2="845.3" y2="537.7"/>
	<line class="st0" x1="1207.2" y1="0.4" x2="965.9" y2="537.7"/>
	<line class="st0" x1="1327.8" y1="0.4" x2="1086.6" y2="537.7"/>
	<line class="st0" x1="1448.4" y1="0.4" x2="1207.2" y2="537.7"/>
	<line class="st0" x1="1569.1" y1="0.4" x2="1327.8" y2="537.7"/>
	<line class="st0" x1="1689.7" y1="0.4" x2="1448.4" y2="537.7"/>
	<line class="st0" x1="1810.3" y1="0.4" x2="1569.1" y2="537.7"/>
	<line class="st0" x1="1930.9" y1="0.4" x2="1689.7" y2="537.7"/>
	<line class="st0" x1="1930.9" y1="269.1" x2="1810.3" y2="537.7"/>
	<line class="st0" x1="242.2" y1="1075" x2="61.3" y2="537.7"/>
	<line class="st0" x1="121.6" y1="1075" x2="0.9" y2="716.8"/>
	<line class="st0" x1="362.8" y1="1075" x2="181.9" y2="537.7"/>
	<line class="st0" x1="483.4" y1="1075" x2="302.5" y2="537.7"/>
	<line class="st0" x1="604.1" y1="1075" x2="423.1" y2="537.7"/>
	<line class="st0" x1="724.7" y1="1075" x2="543.8" y2="537.7"/>
	<line class="st0" x1="845.3" y1="1075" x2="664.4" y2="537.7"/>
	<line class="st0" x1="965.9" y1="1075" x2="785" y2="537.7"/>
	<line class="st0" x1="1086.6" y1="1075" x2="905.6" y2="537.7"/>
	<line class="st0" x1="1207.2" y1="1075" x2="1026.3" y2="537.7"/>
	<line class="st0" x1="1327.8" y1="1075" x2="1146.9" y2="537.7"/>
	<line class="st0" x1="1448.4" y1="1075" x2="1267.5" y2="537.7"/>
	<line class="st0" x1="1569.1" y1="1075" x2="1388.1" y2="537.7"/>
	<line class="st0" x1="1689.7" y1="1075" x2="1508.8" y2="537.7"/>
	<line class="st0" x1="1810.3" y1="1075" x2="1629.4" y2="537.7"/>
	<line class="st0" x1="1930.9" y1="1075" x2="1750" y2="537.7"/>
	<line class="st0" x1="1930.9" y1="716.8" x2="1870.6" y2="537.7"/>
	<line class="st0" x1="121.6" y1="0.4" x2="0.9" y2="269.1"/>
</g>
</svg>
