<?xml version="1.0" encoding="UTF-8"?>
<svg id="Icons" xmlns="http://www.w3.org/2000/svg" viewBox="0 0 107.05 107.05">
  <defs>
    <style>
      .cls-1 {
        fill: none;
        stroke: #3d3c3c;
        stroke-miterlimit: 10;
        stroke-width: 1.85px;
      }

      .cls-2 {
        fill: #3d3c3c;
      }

      .cls-2, .cls-3 {
        stroke-width: 0px;
      }

      .cls-3 {
        fill: #ff462d;
      }
    </style>
  </defs>
  <g>
    <path class="cls-3" d="m43.87,86.84c-3.49,0-9.84-.85-14.79-6.23-6.54-7.11-4.92-16.01-4.72-17,1.81-8.71,9.01-12.72,10.59-13.5v2.1c-2.25,1.3-7.36,4.93-8.78,11.78-.07.36-1.75,8.82,4.27,15.37,5.12,5.58,11.94,5.78,14.63,5.6,8.85-.57,13.78-7.22,14.68-8.55.83-1.26,1.48-2.64,1.92-4.1.64-2.09.67-3.78.69-4.5l1.85.04c-.02.73-.06,2.66-.77,5-.49,1.63-1.22,3.17-2.16,4.59-.99,1.46-6.39,8.74-16.1,9.37-.37.02-.82.04-1.32.04Z"/>
    <path class="cls-2" d="m81,84.88l-9.56-22.14-19.61-.04-.44-.51c-5.82-6.65-9.03-15.18-9.04-24.01h1.85c.01,8.33,3.02,16.38,8.48,22.68l19.98.04,10.36,23.99h-2.01Z"/>
  </g>
  <circle class="cls-1" cx="45.84" cy="26.56" r="6.35"/>
</svg>