<?xml version="1.0" encoding="UTF-8"?>
<svg id="Icons" xmlns="http://www.w3.org/2000/svg" viewBox="0 0 107.05 107.05">
  <defs>
    <style>
      .cls-1 {
        stroke: #3d3c3c;
        stroke-width: 1.85px;
      }

      .cls-1, .cls-2 {
        fill: none;
        stroke-miterlimit: 10;
      }

      .cls-2 {
        stroke: #ff462d;
        stroke-width: 2.06px;
      }
    </style>
  </defs>
  <g>
    <path class="cls-1" d="m13.08,85.12h25.82v5.97c0,2.28-1.85,4.13-4.13,4.13h-17.56c-2.28,0-4.13-1.85-4.13-4.13v-5.97h0Z"/>
    <circle class="cls-1" cx="25.6" cy="72.12" r="6.71"/>
  </g>
  <g>
    <path class="cls-1" d="m68.16,85.12h25.82v5.97c0,2.28-1.85,4.13-4.13,4.13h-17.56c-2.28,0-4.13-1.85-4.13-4.13v-5.97h0Z"/>
    <circle class="cls-1" cx="80.68" cy="72.12" r="6.71"/>
  </g>
  <g>
    <path class="cls-1" d="m13.08,31.55h25.82v5.97c0,2.28-1.85,4.13-4.13,4.13h-17.56c-2.28,0-4.13-1.85-4.13-4.13v-5.97h0Z"/>
    <circle class="cls-1" cx="25.6" cy="18.55" r="6.71"/>
  </g>
  <g>
    <path class="cls-1" d="m68.16,31.55h25.82v5.97c0,2.28-1.85,4.13-4.13,4.13h-17.56c-2.28,0-4.13-1.85-4.13-4.13v-5.97h0Z"/>
    <circle class="cls-1" cx="80.68" cy="18.55" r="6.71"/>
  </g>
  <g>
    <path class="cls-2" d="m40.83,72.16c0-7.01,5.68-12.69,12.69-12.69s12.69,5.68,12.69,12.69"/>
    <path class="cls-2" d="m66.22,46.78c0,7.01-5.68,12.69-12.69,12.69s-12.69-5.68-12.69-12.69"/>
  </g>
</svg>