<?xml version="1.0" encoding="UTF-8"?>
<svg id="Icons" xmlns="http://www.w3.org/2000/svg" viewBox="0 0 107.05 107.05">
  <defs>
    <style>
      .cls-1 {
        stroke: #3d3c3c;
      }

      .cls-1, .cls-2 {
        fill: none;
        stroke-miterlimit: 10;
        stroke-width: 1.85px;
      }

      .cls-2 {
        stroke: #ff462d;
      }

      .cls-3 {
        fill: #3d3c3c;
        stroke-width: 0px;
      }
    </style>
  </defs>
  <polyline class="cls-2" points="8.01 92.37 8.01 83.87 38.29 83.87 38.29 72.42 68.17 72.42 68.17 83.87 98.51 83.87 98.51 92.37"/>
  <g>
    <g>
      <line class="cls-1" x1="49.79" y1="62.51" x2="49.79" y2="37.96"/>
      <line class="cls-1" x1="57.26" y1="37.96" x2="57.26" y2="62.51"/>
    </g>
    <path class="cls-3" d="m60.24,33.47h-13.43c-2.17,0-4.07-1.3-4.86-3.32l-4.26-10.93h1.98s4,10.26,4,10.26c.51,1.3,1.74,2.14,3.14,2.14h13.43c1.4,0,2.63-.84,3.14-2.14l4-10.26h1.98s-4.26,10.93-4.26,10.93c-.79,2.02-2.69,3.32-4.86,3.32Z"/>
  </g>
  <circle class="cls-1" cx="53.52" cy="20.23" r="5.55"/>
  <g>
    <g>
      <g>
        <line class="cls-1" x1="19.83" y1="77.67" x2="19.83" y2="53.12"/>
        <line class="cls-1" x1="27.29" y1="53.12" x2="27.29" y2="77.67"/>
      </g>
      <path class="cls-3" d="m34.1,59.88h-1.85s.02-8.45.02-8.45c0-.75-.29-1.45-.82-1.98s-1.23-.82-1.98-.82h-12.63c-2.17,0-4.07-1.3-4.86-3.32l-4.02-10.31h1.98s3.76,9.64,3.76,9.64c.51,1.3,1.74,2.14,3.14,2.14h12.63c1.24,0,2.41.48,3.28,1.36.88.88,1.36,2.04,1.35,3.29l-.02,8.44Z"/>
    </g>
    <circle class="cls-1" cx="23.56" cy="35.39" r="5.55"/>
  </g>
  <g>
    <g>
      <g>
        <line class="cls-1" x1="87.23" y1="77.67" x2="87.23" y2="53.12"/>
        <line class="cls-1" x1="79.76" y1="53.12" x2="79.76" y2="77.67"/>
      </g>
      <path class="cls-3" d="m72.95,59.88h1.85s-.02-8.45-.02-8.45c0-.75.29-1.45.82-1.98s1.23-.82,1.98-.82h12.63c2.17,0,4.07-1.3,4.86-3.32l4.02-10.31h-1.98s-3.76,9.64-3.76,9.64c-.51,1.3-1.74,2.14-3.14,2.14h-12.63c-1.24,0-2.41.48-3.28,1.36-.88.88-1.36,2.04-1.35,3.29l.02,8.44Z"/>
    </g>
    <circle class="cls-1" cx="83.49" cy="35.39" r="5.55"/>
  </g>
</svg>