<?xml version="1.0" encoding="UTF-8"?>
<svg id="Icons" xmlns="http://www.w3.org/2000/svg" viewBox="0 0 107.05 107.05">
  <defs>
    <style>
      .cls-1 {
        stroke: #3d3c3c;
      }

      .cls-1, .cls-2 {
        fill: none;
        stroke-miterlimit: 10;
        stroke-width: 1.85px;
      }

      .cls-2 {
        stroke: #ff462d;
      }
    </style>
  </defs>
  <circle class="cls-2" cx="35.99" cy="30.89" r="6.71"/>
  <circle class="cls-2" cx="64.47" cy="30.89" r="6.71"/>
  <line class="cls-1" x1="31.81" y1="67.2" x2="31.81" y2="82.88"/>
  <line class="cls-1" x1="40.73" y1="67.2" x2="40.73" y2="82.88"/>
  <polyline class="cls-1" points="60 82.88 60 67.2 52.54 67.2 52.54 60.74 38.06 60.74"/>
  <line class="cls-1" x1="68.93" y1="67.2" x2="68.93" y2="82.88"/>
  <polyline class="cls-1" points="41.84 64.91 37.7 60.72 41.89 56.58"/>
  <polyline class="cls-1" points="58.89 51.27 63.03 55.46 58.84 59.6"/>
  <path class="cls-1" d="m24.22,65.91v-16.29c0-3.33,2.7-6.02,6.02-6.02h11.81c3.33,0,6.02,2.7,6.02,6.02v5.89h13.93"/>
  <path class="cls-1" d="m52.54,50.98v-1.37c0-3.33,2.7-6.02,6.02-6.02h11.81c3.33,0,6.02,2.7,6.02,6.02v16.29"/>
</svg>