<?xml version="1.0" encoding="UTF-8"?>
<svg id="Icons" xmlns="http://www.w3.org/2000/svg" viewBox="0 0 107.05 107.05">
  <defs>
    <style>
      .cls-1 {
        stroke: #3d3c3c;
      }

      .cls-1, .cls-2 {
        fill: none;
        stroke-miterlimit: 10;
        stroke-width: 1.85px;
      }

      .cls-2 {
        stroke: #ff462d;
      }
    </style>
  </defs>
  <g>
    <circle class="cls-2" cx="26.06" cy="69.46" r="5.8"/>
    <path class="cls-1" d="m10.3,100.02v-9.36c0-4.83,3.91-8.74,8.74-8.74h13.85c4.83,0,8.74,3.91,8.74,8.74v9.36"/>
    <line class="cls-1" x1="18.21" y1="90.66" x2="18.21" y2="100.02"/>
    <line class="cls-1" x1="34.17" y1="90.66" x2="34.17" y2="100.02"/>
  </g>
  <g>
    <circle class="cls-2" cx="52.86" cy="12.84" r="5.8"/>
    <path class="cls-1" d="m37.1,43.39v-9.36c0-4.83,3.91-8.74,8.74-8.74h13.85c4.83,0,8.74,3.91,8.74,8.74v9.36"/>
    <line class="cls-1" x1="45.02" y1="34.04" x2="45.02" y2="43.39"/>
    <line class="cls-1" x1="60.97" y1="34.04" x2="60.97" y2="43.39"/>
  </g>
  <g>
    <circle class="cls-2" cx="80.74" cy="69.46" r="5.8"/>
    <path class="cls-1" d="m64.99,100.02v-9.36c0-4.83,3.91-8.74,8.74-8.74h13.85c4.83,0,8.74,3.91,8.74,8.74v9.36"/>
    <line class="cls-1" x1="72.9" y1="90.66" x2="72.9" y2="100.02"/>
    <line class="cls-1" x1="88.95" y1="90.66" x2="88.95" y2="100.02"/>
  </g>
  <line class="cls-1" x1="52.77" y1="53.28" x2="52.77" y2="65.49"/>
  <line class="cls-1" x1="53.01" y1="64.02" x2="43.72" y2="71.93"/>
  <line class="cls-1" x1="53.15" y1="64.22" x2="62.45" y2="72.14"/>
</svg>