<?xml version="1.0" encoding="UTF-8"?>
<svg id="Icons" xmlns="http://www.w3.org/2000/svg" viewBox="0 0 107.05 107.05">
  <defs>
    <style>
      .cls-1, .cls-2 {
        stroke: #3d3c3c;
        stroke-miterlimit: 10;
        stroke-width: 1.85px;
      }

      .cls-1, .cls-3 {
        fill: #ff462d;
      }

      .cls-4, .cls-2 {
        fill: none;
      }

      .cls-4, .cls-5, .cls-3 {
        stroke-width: 0px;
      }

      .cls-5 {
        fill: #3d3c3c;
      }
    </style>
  </defs>
  <g>
    <path class="cls-4" d="m61.58,30.01c-.55,0-.93.3-1.14.92.82.42,1.64.84,2.46,1.26-.03-1.46-.48-2.18-1.32-2.18Z"/>
    <path class="cls-4" d="m28.9,72.41c-.87,0-1.32.76-1.32,2.32s.45,2.32,1.32,2.32,1.32-.75,1.32-2.32-.46-2.32-1.32-2.32Z"/>
    <path class="cls-4" d="m25.35,80.89c-.87,0-1.32.76-1.32,2.32s.45,2.32,1.32,2.32,1.32-.75,1.32-2.32-.46-2.32-1.32-2.32Z"/>
    <path class="cls-4" d="m28.9,55.45c-.87,0-1.32.76-1.32,2.32s.45,2.32,1.32,2.32,1.32-.75,1.32-2.32-.46-2.32-1.32-2.32Z"/>
    <path class="cls-4" d="m28.9,89.37c-.87,0-1.32.76-1.32,2.32s.45,2.32,1.32,2.32,1.32-.75,1.32-2.32-.46-2.32-1.32-2.32Z"/>
    <path class="cls-4" d="m19.19,89.37c-.87,0-1.32.76-1.32,2.32s.45,2.32,1.32,2.32,1.32-.75,1.32-2.32-.46-2.32-1.32-2.32Z"/>
    <path class="cls-4" d="m15.64,80.89c-.87,0-1.32.76-1.32,2.32s.45,2.32,1.32,2.32,1.32-.75,1.32-2.32-.46-2.32-1.32-2.32Z"/>
    <path class="cls-4" d="m19.19,38.49c-.87,0-1.32.76-1.32,2.32s.45,2.32,1.32,2.32,1.32-.75,1.32-2.32-.46-2.32-1.32-2.32Z"/>
    <path class="cls-4" d="m19.19,72.41c-.87,0-1.32.76-1.32,2.32s.45,2.32,1.32,2.32,1.32-.75,1.32-2.32-.46-2.32-1.32-2.32Z"/>
    <path class="cls-4" d="m19.19,55.45c-.87,0-1.32.76-1.32,2.32s.45,2.32,1.32,2.32,1.32-.75,1.32-2.32-.46-2.32-1.32-2.32Z"/>
    <path class="cls-4" d="m61.58,80.89c-.87,0-1.32.76-1.32,2.32s.45,2.32,1.32,2.32,1.32-.75,1.32-2.32-.46-2.32-1.32-2.32Z"/>
    <path class="cls-4" d="m28.9,38.49c-.87,0-1.32.76-1.32,2.32s.45,2.32,1.32,2.32,1.32-.75,1.32-2.32-.46-2.32-1.32-2.32Z"/>
    <path class="cls-4" d="m65.13,89.37c-.87,0-1.32.76-1.32,2.32s.45,2.32,1.32,2.32,1.32-.75,1.32-2.32-.46-2.32-1.32-2.32Z"/>
    <path class="cls-4" d="m74.84,68.56c.87,0,1.32-.75,1.32-2.32s-.46-2.32-1.32-2.32-1.32.76-1.32,2.32.45,2.32,1.32,2.32Z"/>
    <path class="cls-4" d="m15.64,30.01c-.87,0-1.32.76-1.32,2.32s.45,2.32,1.32,2.32,1.32-.75,1.32-2.32-.46-2.32-1.32-2.32Z"/>
    <path class="cls-4" d="m76.16,49.29c0-1.33-.34-2.08-.98-2.27v4.53c.64-.18.98-.93.98-2.27Z"/>
    <path class="cls-4" d="m38.61,30.01c-.87,0-1.32.76-1.32,2.32s.45,2.32,1.32,2.32,1.32-.75,1.32-2.32-.46-2.32-1.32-2.32Z"/>
    <path class="cls-4" d="m28.9,21.53c-.87,0-1.32.76-1.32,2.32s.45,2.32,1.32,2.32,1.32-.75,1.32-2.32-.46-2.32-1.32-2.32Z"/>
    <path class="cls-4" d="m38.61,80.89c-.87,0-1.32.76-1.32,2.32s.45,2.32,1.32,2.32,1.32-.75,1.32-2.32-.46-2.32-1.32-2.32Z"/>
    <path class="cls-4" d="m45.71,89.37c-.87,0-1.32.76-1.32,2.32s.45,2.32,1.32,2.32,1.32-.75,1.32-2.32-.46-2.32-1.32-2.32Z"/>
    <path class="cls-4" d="m55.42,89.37c-.87,0-1.32.76-1.32,2.32s.45,2.32,1.32,2.32,1.32-.75,1.32-2.32-.46-2.32-1.32-2.32Z"/>
    <path class="cls-4" d="m19.19,21.53c-.87,0-1.32.76-1.32,2.32s.45,2.32,1.32,2.32,1.32-.75,1.32-2.32-.46-2.32-1.32-2.32Z"/>
    <path class="cls-4" d="m73.52,32.33c0,1.56.45,2.32,1.32,2.32s1.32-.75,1.32-2.32-.46-2.32-1.32-2.32-1.32.76-1.32,2.32Z"/>
    <path class="cls-4" d="m74.84,17.69c.87,0,1.32-.75,1.32-2.32s-.46-2.32-1.32-2.32-1.32.76-1.32,2.32.45,2.32,1.32,2.32Z"/>
    <path class="cls-4" d="m55.42,21.53c-.87,0-1.32.76-1.32,2.32s.45,2.32,1.32,2.32,1.32-.75,1.32-2.32-.46-2.32-1.32-2.32Z"/>
    <path class="cls-4" d="m88.1,17.69c.87,0,1.32-.75,1.32-2.32s-.46-2.32-1.32-2.32-1.32.76-1.32,2.32.45,2.32,1.32,2.32Z"/>
    <path class="cls-4" d="m65.13,21.53c-.87,0-1.32.76-1.32,2.32s.45,2.32,1.32,2.32,1.32-.75,1.32-2.32-.46-2.32-1.32-2.32Z"/>
    <path class="cls-4" d="m61.58,17.69c.87,0,1.32-.75,1.32-2.32s-.46-2.32-1.32-2.32-1.32.76-1.32,2.32.45,2.32,1.32,2.32Z"/>
    <path class="cls-4" d="m91.65,21.53c-.87,0-1.32.76-1.32,2.32s.45,2.32,1.32,2.32,1.32-.75,1.32-2.32-.46-2.32-1.32-2.32Z"/>
    <path class="cls-4" d="m88.1,46.97c-.87,0-1.32.76-1.32,2.32s.45,2.32,1.32,2.32,1.32-.75,1.32-2.32-.46-2.32-1.32-2.32Z"/>
    <path class="cls-4" d="m88.1,68.56c.87,0,1.32-.75,1.32-2.32s-.46-2.32-1.32-2.32-1.32.76-1.32,2.32.45,2.32,1.32,2.32Z"/>
    <path class="cls-4" d="m88.1,30.01c-.87,0-1.32.76-1.32,2.32s.45,2.32,1.32,2.32,1.32-.75,1.32-2.32-.46-2.32-1.32-2.32Z"/>
    <path class="cls-4" d="m15.64,17.69c.87,0,1.32-.75,1.32-2.32s-.46-2.32-1.32-2.32-1.32.76-1.32,2.32.45,2.32,1.32,2.32Z"/>
    <path class="cls-4" d="m25.35,30.01c-.87,0-1.32.76-1.32,2.32s.45,2.32,1.32,2.32,1.32-.75,1.32-2.32-.46-2.32-1.32-2.32Z"/>
    <path class="cls-4" d="m25.35,68.56c.87,0,1.32-.75,1.32-2.32s-.46-2.32-1.32-2.32-1.32.76-1.32,2.32.45,2.32,1.32,2.32Z"/>
    <path class="cls-4" d="m15.64,68.56c.87,0,1.32-.75,1.32-2.32s-.46-2.32-1.32-2.32-1.32.76-1.32,2.32.45,2.32,1.32,2.32Z"/>
    <path class="cls-4" d="m15.64,46.97c-.87,0-1.32.76-1.32,2.32s.45,2.32,1.32,2.32,1.32-.75,1.32-2.32-.46-2.32-1.32-2.32Z"/>
    <path class="cls-4" d="m25.35,17.69c.87,0,1.32-.75,1.32-2.32s-.46-2.32-1.32-2.32-1.32.76-1.32,2.32.45,2.32,1.32,2.32Z"/>
    <path class="cls-4" d="m38.61,17.69c.87,0,1.32-.75,1.32-2.32s-.46-2.32-1.32-2.32-1.32.76-1.32,2.32.45,2.32,1.32,2.32Z"/>
    <path class="cls-4" d="m45.71,21.53c-.87,0-1.32.76-1.32,2.32s.45,2.32,1.32,2.32,1.32-.75,1.32-2.32-.46-2.32-1.32-2.32Z"/>
    <path class="cls-4" d="m25.35,46.97c-.87,0-1.32.76-1.32,2.32s.45,2.32,1.32,2.32,1.32-.75,1.32-2.32-.46-2.32-1.32-2.32Z"/>
    <path class="cls-4" d="m51.87,17.69c.87,0,1.32-.75,1.32-2.32s-.46-2.32-1.32-2.32-1.32.76-1.32,2.32.45,2.32,1.32,2.32Z"/>
    <path class="cls-4" d="m50.55,83.2c0,1.56.45,2.32,1.32,2.32s1.32-.75,1.32-2.32c0-.78-.12-1.36-.34-1.75-.45-.16-.91-.32-1.36-.51-.63.2-.95.94-.95,2.25Z"/>
    <path class="cls-4" d="m81.94,38.49c-.87,0-1.32.76-1.32,2.32s.45,2.32,1.32,2.32,1.32-.75,1.32-2.32-.46-2.32-1.32-2.32Z"/>
    <path class="cls-4" d="m88.1,80.89c-.87,0-1.32.76-1.32,2.32s.45,2.32,1.32,2.32,1.32-.75,1.32-2.32-.46-2.32-1.32-2.32Z"/>
    <path class="cls-4" d="m81.94,55.45c-.87,0-1.32.76-1.32,2.32s.45,2.32,1.32,2.32,1.32-.75,1.32-2.32-.46-2.32-1.32-2.32Z"/>
    <path class="cls-4" d="m81.94,21.53c-.87,0-1.32.76-1.32,2.32s.45,2.32,1.32,2.32,1.32-.75,1.32-2.32-.46-2.32-1.32-2.32Z"/>
    <path class="cls-4" d="m65.13,77.04c.87,0,1.32-.75,1.32-2.32,0-.38-.03-.71-.08-1-.77.79-1.57,1.55-2.42,2.26.2.7.59,1.05,1.18,1.05Z"/>
    <path class="cls-4" d="m74.84,80.89c-.87,0-1.32.76-1.32,2.32s.45,2.32,1.32,2.32,1.32-.75,1.32-2.32-.46-2.32-1.32-2.32Z"/>
    <path class="cls-4" d="m81.94,89.37c-.87,0-1.32.76-1.32,2.32s.45,2.32,1.32,2.32,1.32-.75,1.32-2.32-.46-2.32-1.32-2.32Z"/>
    <path class="cls-4" d="m81.94,72.41c-.87,0-1.32.76-1.32,2.32s.45,2.32,1.32,2.32,1.32-.75,1.32-2.32-.46-2.32-1.32-2.32Z"/>
    <path class="cls-4" d="m91.65,38.49c-.87,0-1.32.76-1.32,2.32s.45,2.32,1.32,2.32,1.32-.75,1.32-2.32-.46-2.32-1.32-2.32Z"/>
    <path class="cls-4" d="m91.65,89.37c-.87,0-1.32.76-1.32,2.32s.45,2.32,1.32,2.32,1.32-.75,1.32-2.32-.46-2.32-1.32-2.32Z"/>
    <path class="cls-4" d="m91.65,55.45c-.87,0-1.32.76-1.32,2.32s.45,2.32,1.32,2.32,1.32-.75,1.32-2.32-.46-2.32-1.32-2.32Z"/>
    <path class="cls-4" d="m91.65,72.41c-.87,0-1.32.76-1.32,2.32s.45,2.32,1.32,2.32,1.32-.75,1.32-2.32-.46-2.32-1.32-2.32Z"/>
    <path class="cls-5" d="m15.64,18.7c1.69,0,2.68-1.15,2.68-3.33s-.99-3.33-2.68-3.33-2.68,1.15-2.68,3.33.99,3.33,2.68,3.33Zm0-5.64c.87,0,1.32.76,1.32,2.32s-.46,2.32-1.32,2.32-1.32-.75-1.32-2.32.45-2.32,1.32-2.32Z"/>
    <path class="cls-5" d="m20.26,18.59h1.33v-6.45h-1.09l-.04.14c-.18.51-.5.79-1.38.79h-.2v1.07h1.38v4.45Z"/>
    <path class="cls-5" d="m25.35,18.7c1.69,0,2.68-1.15,2.68-3.33s-.99-3.33-2.68-3.33-2.68,1.15-2.68,3.33.99,3.33,2.68,3.33Zm0-5.64c.87,0,1.32.76,1.32,2.32s-.46,2.32-1.32,2.32-1.32-.75-1.32-2.32.45-2.32,1.32-2.32Z"/>
    <path class="cls-5" d="m29.97,18.59h1.33v-6.45h-1.09l-.04.14c-.18.51-.5.79-1.38.79h-.2v1.07h1.38v4.45Z"/>
    <path class="cls-5" d="m33.52,18.59h1.33v-6.45h-1.09l-.04.14c-.18.51-.5.79-1.38.79h-.2v1.07h1.38v4.45Z"/>
    <path class="cls-5" d="m38.61,18.7c1.69,0,2.68-1.15,2.68-3.33s-.99-3.33-2.68-3.33-2.68,1.15-2.68,3.33.99,3.33,2.68,3.33Zm0-5.64c.87,0,1.32.76,1.32,2.32s-.46,2.32-1.32,2.32-1.32-.75-1.32-2.32.45-2.32,1.32-2.32Z"/>
    <path class="cls-5" d="m43.23,18.59h1.33v-6.45h-1.09l-.04.14c-.18.51-.5.79-1.38.79h-.2v1.07h1.38v4.45Z"/>
    <path class="cls-5" d="m46.78,18.59h1.33v-6.45h-1.09l-.04.14c-.18.51-.5.79-1.38.79h-.2v1.07h1.38v4.45Z"/>
    <path class="cls-5" d="m51.87,18.7c1.69,0,2.68-1.15,2.68-3.33s-.99-3.33-2.68-3.33-2.68,1.15-2.68,3.33.99,3.33,2.68,3.33Zm0-5.64c.87,0,1.32.76,1.32,2.32s-.46,2.32-1.32,2.32-1.32-.75-1.32-2.32.45-2.32,1.32-2.32Z"/>
    <path class="cls-5" d="m56.49,18.59h1.33v-6.45h-1.09l-.04.14c-.18.51-.5.79-1.38.79h-.2v1.07h1.38v4.45Z"/>
    <path class="cls-5" d="m61.58,18.7c1.69,0,2.68-1.15,2.68-3.33s-.99-3.33-2.68-3.33-2.68,1.15-2.68,3.33.99,3.33,2.68,3.33Zm0-5.64c.87,0,1.32.76,1.32,2.32s-.46,2.32-1.32,2.32-1.32-.75-1.32-2.32.45-2.32,1.32-2.32Z"/>
    <path class="cls-5" d="m66.2,18.59h1.33v-6.45h-1.09l-.04.14c-.18.51-.5.79-1.38.79h-.2v1.07h1.38v4.45Z"/>
    <path class="cls-5" d="m69.75,18.59h1.33v-6.45h-1.09l-.04.14c-.18.51-.5.79-1.38.79h-.2v1.07h1.38v4.45Z"/>
    <path class="cls-5" d="m74.84,18.7c1.69,0,2.68-1.15,2.68-3.33s-.99-3.33-2.68-3.33-2.68,1.15-2.68,3.33.99,3.33,2.68,3.33Zm0-5.64c.87,0,1.32.76,1.32,2.32s-.46,2.32-1.32,2.32-1.32-.75-1.32-2.32.45-2.32,1.32-2.32Z"/>
    <path class="cls-5" d="m79.46,18.59h1.33v-6.45h-1.09l-.04.14c-.18.51-.5.79-1.38.79h-.2v1.07h1.38v4.45Z"/>
    <path class="cls-5" d="m83.01,18.59h1.33v-6.45h-1.09l-.04.14c-.18.51-.5.79-1.38.79h-.2v1.07h1.38v4.45Z"/>
    <path class="cls-5" d="m88.1,18.7c1.69,0,2.68-1.15,2.68-3.33s-.99-3.33-2.68-3.33-2.68,1.15-2.68,3.33.99,3.33,2.68,3.33Zm0-5.64c.87,0,1.32.76,1.32,2.32s-.46,2.32-1.32,2.32-1.32-.75-1.32-2.32.45-2.32,1.32-2.32Z"/>
    <path class="cls-5" d="m92.72,18.59h1.33v-6.45h-1.09l-.04.14c-.18.51-.5.79-1.38.79h-.2v1.07h1.38v4.45Z"/>
    <path class="cls-5" d="m14.1,27.07h1.33v-6.45h-1.09l-.04.14c-.18.51-.5.79-1.38.79h-.2v1.07h1.38v4.45Z"/>
    <path class="cls-5" d="m19.19,20.52c-1.69,0-2.68,1.15-2.68,3.33s.99,3.33,2.68,3.33,2.68-1.15,2.68-3.33-.99-3.33-2.68-3.33Zm0,5.64c-.87,0-1.32-.75-1.32-2.32s.45-2.32,1.32-2.32,1.32.76,1.32,2.32-.46,2.32-1.32,2.32Z"/>
    <path class="cls-5" d="m23.81,27.07h1.33v-6.45h-1.09l-.04.14c-.18.51-.5.79-1.38.79h-.2v1.07h1.38v4.45Z"/>
    <path class="cls-5" d="m28.9,20.52c-1.69,0-2.68,1.15-2.68,3.33s.99,3.33,2.68,3.33,2.68-1.15,2.68-3.33-.99-3.33-2.68-3.33Zm0,5.64c-.87,0-1.32-.75-1.32-2.32s.45-2.32,1.32-2.32,1.32.76,1.32,2.32-.46,2.32-1.32,2.32Z"/>
    <path class="cls-5" d="m33.52,27.07h1.33v-6.45h-1.09l-.04.14c-.18.51-.5.79-1.38.79h-.2v1.07h1.38v4.45Z"/>
    <path class="cls-5" d="m37.07,27.07h1.33v-6.45h-1.09l-.04.14c-.18.51-.5.79-1.38.79h-.2v1.07h1.38v4.45Z"/>
    <path class="cls-5" d="m41.96,27.07v-6.45h-1.09l-.04.14c-.18.51-.5.79-1.38.79h-.2v1.07h1.38v4.45h1.33Z"/>
    <path class="cls-5" d="m45.71,20.52c-1.69,0-2.68,1.15-2.68,3.33s.99,3.33,2.68,3.33,2.68-1.15,2.68-3.33-.99-3.33-2.68-3.33Zm0,5.64c-.87,0-1.32-.75-1.32-2.32s.45-2.32,1.32-2.32,1.32.76,1.32,2.32-.46,2.32-1.32,2.32Z"/>
    <path class="cls-5" d="m50.33,27.07h1.33v-6.45h-1.09l-.04.14c-.18.51-.5.79-1.38.79h-.2v1.07h1.38v4.45Z"/>
    <path class="cls-5" d="m55.42,20.52c-1.69,0-2.68,1.15-2.68,3.33s.99,3.33,2.68,3.33,2.68-1.15,2.68-3.33-.99-3.33-2.68-3.33Zm0,5.64c-.87,0-1.32-.75-1.32-2.32s.45-2.32,1.32-2.32,1.32.76,1.32,2.32-.46,2.32-1.32,2.32Z"/>
    <path class="cls-5" d="m60.04,27.07h1.33v-6.45h-1.09l-.04.14c-.18.51-.5.79-1.38.79h-.2v1.07h1.38v4.45Z"/>
    <path class="cls-5" d="m65.13,20.52c-1.69,0-2.68,1.15-2.68,3.33s.99,3.33,2.68,3.33,2.68-1.15,2.68-3.33-.99-3.33-2.68-3.33Zm0,5.64c-.87,0-1.32-.75-1.32-2.32s.45-2.32,1.32-2.32,1.32.76,1.32,2.32-.46,2.32-1.32,2.32Z"/>
    <path class="cls-5" d="m69.75,27.07h1.33v-6.45h-1.09l-.04.14c-.18.51-.5.79-1.38.79h-.2v1.07h1.38v4.45Z"/>
    <path class="cls-5" d="m73.3,27.07h1.33v-6.45h-1.09l-.04.14c-.18.51-.5.79-1.38.79h-.2v1.07h1.38v4.45Z"/>
    <path class="cls-5" d="m78.19,27.07v-6.45h-1.09l-.04.14c-.18.51-.5.79-1.38.79h-.2v1.07h1.38v4.45h1.33Z"/>
    <path class="cls-5" d="m81.94,20.52c-1.69,0-2.68,1.15-2.68,3.33s.99,3.33,2.68,3.33,2.68-1.15,2.68-3.33-.99-3.33-2.68-3.33Zm0,5.64c-.87,0-1.32-.75-1.32-2.32s.45-2.32,1.32-2.32,1.32.76,1.32,2.32-.46,2.32-1.32,2.32Z"/>
    <path class="cls-5" d="m86.57,27.07h1.33v-6.45h-1.09l-.04.14c-.18.51-.5.79-1.38.79h-.2v1.07h1.38v4.45Z"/>
    <path class="cls-5" d="m91.65,20.52c-1.69,0-2.68,1.15-2.68,3.33s.99,3.33,2.68,3.33,2.68-1.15,2.68-3.33-.99-3.33-2.68-3.33Zm0,5.64c-.87,0-1.32-.75-1.32-2.32s.45-2.32,1.32-2.32,1.32.76,1.32,2.32-.46,2.32-1.32,2.32Z"/>
    <path class="cls-5" d="m18.32,32.33c0-2.17-.99-3.33-2.68-3.33s-2.68,1.15-2.68,3.33.99,3.33,2.68,3.33,2.68-1.15,2.68-3.33Zm-2.68,2.32c-.87,0-1.32-.75-1.32-2.32s.45-2.32,1.32-2.32,1.32.76,1.32,2.32-.46,2.32-1.32,2.32Z"/>
    <path class="cls-5" d="m21.59,35.55v-6.45h-1.09l-.04.14c-.18.51-.5.79-1.38.79h-.2v1.07h1.38v4.45h1.33Z"/>
    <path class="cls-5" d="m28.03,32.33c0-2.17-.99-3.33-2.68-3.33s-2.68,1.15-2.68,3.33.99,3.33,2.68,3.33,2.68-1.15,2.68-3.33Zm-2.68,2.32c-.87,0-1.32-.75-1.32-2.32s.45-2.32,1.32-2.32,1.32.76,1.32,2.32-.46,2.32-1.32,2.32Z"/>
    <path class="cls-5" d="m31.3,35.55v-6.45h-1.09l-.04.14c-.18.51-.5.79-1.38.79h-.2v1.07h1.38v4.45h1.33Z"/>
    <path class="cls-5" d="m33.52,35.55h1.33v-6.45h-1.09l-.04.14c-.18.51-.5.79-1.38.79h-.2v1.07h1.38v4.45Z"/>
    <path class="cls-5" d="m41.29,32.33c0-2.17-.99-3.33-2.68-3.33s-2.68,1.15-2.68,3.33c0,1.82.7,2.91,1.91,3.22l3.22-1.65c.15-.44.23-.96.23-1.57Zm-2.68,2.32c-.87,0-1.32-.75-1.32-2.32s.45-2.32,1.32-2.32,1.32.76,1.32,2.32-.46,2.32-1.32,2.32Z"/>
    <path class="cls-5" d="m44.56,29.1h-1.09l-.04.14c-.18.51-.5.79-1.38.79h-.2v1.07h1.38v1.67l1.33-.69v-2.99Z"/>
    <path class="cls-5" d="m48.11,29.1h-1.09l-.04.14c-.18.51-.5.79-1.38.79h-.2v1.07h1.08l1.63-.84v-1.16Z"/>
    <path class="cls-5" d="m57.82,29.1h-.94c.31.16.63.32.94.48v-.48Z"/>
    <path class="cls-5" d="m61.58,30.01c.84,0,1.29.72,1.32,2.18.44.23.89.46,1.33.68.02-.18.03-.35.03-.55,0-2.17-.99-3.33-2.68-3.33-1.06,0-1.85.46-2.29,1.34.38.2.76.39,1.15.59.21-.61.59-.92,1.14-.92Z"/>
    <path class="cls-5" d="m67.53,29.1h-1.09l-.04.14c-.18.51-.5.79-1.38.79h-.2v1.07h1.38v2.78c.44.23.89.46,1.33.68v-5.47Z"/>
    <path class="cls-5" d="m69.75,35.55h1.33v-6.45h-1.09l-.04.14c-.18.51-.5.79-1.38.79h-.2v1.07h1.38v4.45Z"/>
    <path class="cls-5" d="m72.16,32.33c0,2.18.99,3.33,2.68,3.33s2.68-1.15,2.68-3.33-.99-3.33-2.68-3.33-2.68,1.15-2.68,3.33Zm4,0c0,1.56-.46,2.32-1.32,2.32s-1.32-.75-1.32-2.32.45-2.32,1.32-2.32,1.32.76,1.32,2.32Z"/>
    <path class="cls-5" d="m80.79,35.55v-6.45h-1.09l-.04.14c-.18.51-.5.79-1.38.79h-.2v1.07h1.38v4.45h1.33Z"/>
    <path class="cls-5" d="m84.34,35.55v-6.45h-1.09l-.04.14c-.18.51-.5.79-1.38.79h-.2v1.07h1.38v4.45h1.33Z"/>
    <path class="cls-5" d="m90.78,32.33c0-2.17-.99-3.33-2.68-3.33s-2.68,1.15-2.68,3.33.99,3.33,2.68,3.33,2.68-1.15,2.68-3.33Zm-2.68,2.32c-.87,0-1.32-.75-1.32-2.32s.45-2.32,1.32-2.32,1.32.76,1.32,2.32-.46,2.32-1.32,2.32Z"/>
    <path class="cls-5" d="m94.05,35.55v-6.45h-1.09l-.04.14c-.18.51-.5.79-1.38.79h-.2v1.07h1.38v4.45h1.33Z"/>
    <path class="cls-5" d="m14.1,44.03h1.33v-6.45h-1.09l-.04.14c-.18.51-.5.79-1.38.79h-.2v1.07h1.38v4.45Z"/>
    <path class="cls-5" d="m19.19,37.48c-1.69,0-2.68,1.15-2.68,3.33s.99,3.33,2.68,3.33,2.68-1.15,2.68-3.33-.99-3.33-2.68-3.33Zm0,5.64c-.87,0-1.32-.75-1.32-2.32s.45-2.32,1.32-2.32,1.32.76,1.32,2.32-.46,2.32-1.32,2.32Z"/>
    <path class="cls-5" d="m23.81,44.03h1.33v-6.45h-1.09l-.04.14c-.18.51-.5.79-1.38.79h-.2v1.07h1.38v4.45Z"/>
    <path class="cls-5" d="m28.9,37.48c-1.69,0-2.68,1.15-2.68,3.33s.99,3.33,2.68,3.33,2.68-1.15,2.68-3.33-.99-3.33-2.68-3.33Zm0,5.64c-.87,0-1.32-.75-1.32-2.32s.45-2.32,1.32-2.32,1.32.76,1.32,2.32-.46,2.32-1.32,2.32Z"/>
    <polygon class="cls-5" points="33.77 37.58 33.74 37.66 33.89 37.58 33.77 37.58"/>
    <path class="cls-5" d="m74.64,37.58h-1.09l-.02.07c.37.19.74.38,1.11.57v-.64Z"/>
    <path class="cls-5" d="m78.19,44.03v-6.45h-1.09l-.04.14c-.18.51-.5.79-1.38.79h-.2v1.07h1.38v4.45h1.33Z"/>
    <path class="cls-5" d="m81.94,37.48c-1.69,0-2.68,1.15-2.68,3.33s.99,3.33,2.68,3.33,2.68-1.15,2.68-3.33-.99-3.33-2.68-3.33Zm0,5.64c-.87,0-1.32-.75-1.32-2.32s.45-2.32,1.32-2.32,1.32.76,1.32,2.32-.46,2.32-1.32,2.32Z"/>
    <path class="cls-5" d="m86.57,44.03h1.33v-6.45h-1.09l-.04.14c-.18.51-.5.79-1.38.79h-.2v1.07h1.38v4.45Z"/>
    <path class="cls-5" d="m91.65,37.48c-1.69,0-2.68,1.15-2.68,3.33s.99,3.33,2.68,3.33,2.68-1.15,2.68-3.33-.99-3.33-2.68-3.33Zm0,5.64c-.87,0-1.32-.75-1.32-2.32s.45-2.32,1.32-2.32,1.32.76,1.32,2.32-.46,2.32-1.32,2.32Z"/>
    <path class="cls-5" d="m18.32,49.29c0-2.17-.99-3.33-2.68-3.33s-2.68,1.15-2.68,3.33.99,3.33,2.68,3.33,2.68-1.15,2.68-3.33Zm-2.68,2.32c-.87,0-1.32-.75-1.32-2.32s.45-2.32,1.32-2.32,1.32.76,1.32,2.32-.46,2.32-1.32,2.32Z"/>
    <path class="cls-5" d="m21.59,52.51v-6.45h-1.09l-.04.14c-.18.51-.5.79-1.38.79h-.2v1.07h1.38v4.45h1.33Z"/>
    <path class="cls-5" d="m28.03,49.29c0-2.17-.99-3.33-2.68-3.33s-2.68,1.15-2.68,3.33.99,3.33,2.68,3.33,2.68-1.15,2.68-3.33Zm-2.68,2.32c-.87,0-1.32-.75-1.32-2.32s.45-2.32,1.32-2.32,1.32.76,1.32,2.32-.46,2.32-1.32,2.32Z"/>
    <path class="cls-5" d="m31.3,52.51v-6.45h-1.09l-.04.14c-.18.51-.5.79-1.38.79h-.2v1.07h1.38v4.45h1.33Z"/>
    <path class="cls-5" d="m76.16,49.29c0,1.34-.34,2.08-.98,2.27v.41c0,.21-.02.42-.03.62,1.49-.14,2.37-1.26,2.37-3.3s-.87-3.15-2.34-3.3v1.03c.64.19.98.93.98,2.27Z"/>
    <path class="cls-5" d="m80.79,52.51v-6.45h-1.09l-.04.14c-.18.51-.5.79-1.38.79h-.2v1.07h1.38v4.45h1.33Z"/>
    <path class="cls-5" d="m84.34,52.51v-6.45h-1.09l-.04.14c-.18.51-.5.79-1.38.79h-.2v1.07h1.38v4.45h1.33Z"/>
    <path class="cls-5" d="m90.78,49.29c0-2.17-.99-3.33-2.68-3.33s-2.68,1.15-2.68,3.33.99,3.33,2.68,3.33,2.68-1.15,2.68-3.33Zm-2.68,2.32c-.87,0-1.32-.75-1.32-2.32s.45-2.32,1.32-2.32,1.32.76,1.32,2.32-.46,2.32-1.32,2.32Z"/>
    <path class="cls-5" d="m94.05,52.51v-6.45h-1.09l-.04.14c-.18.51-.5.79-1.38.79h-.2v1.07h1.38v4.45h1.33Z"/>
    <path class="cls-5" d="m14.1,60.99h1.33v-6.45h-1.09l-.04.14c-.18.51-.5.79-1.38.79h-.2v1.07h1.38v4.45Z"/>
    <path class="cls-5" d="m19.19,54.44c-1.69,0-2.68,1.15-2.68,3.33s.99,3.33,2.68,3.33,2.68-1.15,2.68-3.33-.99-3.33-2.68-3.33Zm0,5.64c-.87,0-1.32-.75-1.32-2.32s.45-2.32,1.32-2.32,1.32.76,1.32,2.32-.46,2.32-1.32,2.32Z"/>
    <path class="cls-5" d="m23.81,60.99h1.33v-6.45h-1.09l-.04.14c-.18.51-.5.79-1.38.79h-.2v1.07h1.38v4.45Z"/>
    <path class="cls-5" d="m28.9,54.44c-1.69,0-2.68,1.15-2.68,3.33s.99,3.33,2.68,3.33,2.68-1.15,2.68-3.33-.99-3.33-2.68-3.33Zm0,5.64c-.87,0-1.32-.75-1.32-2.32s.45-2.32,1.32-2.32,1.32.76,1.32,2.32-.46,2.32-1.32,2.32Z"/>
    <path class="cls-5" d="m32.14,55.48v1.07h.32c-.05-.35-.09-.71-.13-1.07h-.19Z"/>
    <path class="cls-5" d="m74.64,60.99v-3.3c-.21,1.12-.48,2.22-.8,3.3h.8Z"/>
    <path class="cls-5" d="m78.19,60.99v-6.45h-1.09l-.04.14c-.18.51-.5.79-1.38.79h-.2v1.07h1.38v4.45h1.33Z"/>
    <path class="cls-5" d="m81.94,54.44c-1.69,0-2.68,1.15-2.68,3.33s.99,3.33,2.68,3.33,2.68-1.15,2.68-3.33-.99-3.33-2.68-3.33Zm0,5.64c-.87,0-1.32-.75-1.32-2.32s.45-2.32,1.32-2.32,1.32.76,1.32,2.32-.46,2.32-1.32,2.32Z"/>
    <path class="cls-5" d="m86.57,60.99h1.33v-6.45h-1.09l-.04.14c-.18.51-.5.79-1.38.79h-.2v1.07h1.38v4.45Z"/>
    <path class="cls-5" d="m91.65,54.44c-1.69,0-2.68,1.15-2.68,3.33s.99,3.33,2.68,3.33,2.68-1.15,2.68-3.33-.99-3.33-2.68-3.33Zm0,5.64c-.87,0-1.32-.75-1.32-2.32s.45-2.32,1.32-2.32,1.32.76,1.32,2.32-.46,2.32-1.32,2.32Z"/>
    <path class="cls-5" d="m12.96,66.25c0,2.18.99,3.33,2.68,3.33s2.68-1.15,2.68-3.33-.99-3.33-2.68-3.33-2.68,1.15-2.68,3.33Zm2.68-2.32c.87,0,1.32.76,1.32,2.32s-.46,2.32-1.32,2.32-1.32-.75-1.32-2.32.45-2.32,1.32-2.32Z"/>
    <path class="cls-5" d="m21.59,69.47v-6.45h-1.09l-.04.14c-.18.51-.5.79-1.38.79h-.2v1.07h1.38v4.45h1.33Z"/>
    <path class="cls-5" d="m22.67,66.25c0,2.18.99,3.33,2.68,3.33s2.68-1.15,2.68-3.33-.99-3.33-2.68-3.33-2.68,1.15-2.68,3.33Zm2.68-2.32c.87,0,1.32.76,1.32,2.32s-.46,2.32-1.32,2.32-1.32-.75-1.32-2.32.45-2.32,1.32-2.32Z"/>
    <path class="cls-5" d="m31.3,69.47v-6.45h-1.09l-.04.14c-.18.51-.5.79-1.38.79h-.2v1.07h1.38v4.45h1.33Z"/>
    <path class="cls-5" d="m33.77,63.02l-.04.14c-.18.51-.5.79-1.38.79h-.2v1.07h1.38v4.45h1.33v-4.71c-.26-.57-.49-1.15-.71-1.74h-.38Z"/>
    <path class="cls-5" d="m37.35,69.29c-.49-.74-.95-1.5-1.38-2.28.14,1.14.63,1.9,1.38,2.28Z"/>
    <path class="cls-5" d="m69.81,69.47h1.27v-2.05c-.4.7-.82,1.38-1.27,2.05Z"/>
    <path class="cls-5" d="m72.16,66.25c0,2.18.99,3.33,2.68,3.33s2.68-1.15,2.68-3.33-.99-3.33-2.68-3.33c-.85,0-1.52.29-1.98.86-.18.44-.38.87-.57,1.3-.08.35-.13.73-.13,1.17Zm2.68-2.32c.87,0,1.32.76,1.32,2.32s-.46,2.32-1.32,2.32-1.32-.75-1.32-2.32.45-2.32,1.32-2.32Z"/>
    <path class="cls-5" d="m80.79,69.47v-6.45h-1.09l-.04.14c-.18.51-.5.79-1.38.79h-.2v1.07h1.38v4.45h1.33Z"/>
    <path class="cls-5" d="m84.34,69.47v-6.45h-1.09l-.04.14c-.18.51-.5.79-1.38.79h-.2v1.07h1.38v4.45h1.33Z"/>
    <path class="cls-5" d="m85.42,66.25c0,2.18.99,3.33,2.68,3.33s2.68-1.15,2.68-3.33-.99-3.33-2.68-3.33-2.68,1.15-2.68,3.33Zm2.68-2.32c.87,0,1.32.76,1.32,2.32s-.46,2.32-1.32,2.32-1.32-.75-1.32-2.32.45-2.32,1.32-2.32Z"/>
    <path class="cls-5" d="m94.05,69.47v-6.45h-1.09l-.04.14c-.18.51-.5.79-1.38.79h-.2v1.07h1.38v4.45h1.33Z"/>
    <path class="cls-5" d="m14.1,77.95h1.33v-6.45h-1.09l-.04.14c-.18.51-.5.79-1.38.79h-.2v1.07h1.38v4.45Z"/>
    <path class="cls-5" d="m19.19,71.4c-1.69,0-2.68,1.15-2.68,3.33s.99,3.33,2.68,3.33,2.68-1.15,2.68-3.33-.99-3.33-2.68-3.33Zm0,5.64c-.87,0-1.32-.75-1.32-2.32s.45-2.32,1.32-2.32,1.32.76,1.32,2.32-.46,2.32-1.32,2.32Z"/>
    <path class="cls-5" d="m23.81,77.95h1.33v-6.45h-1.09l-.04.14c-.18.51-.5.79-1.38.79h-.2v1.07h1.38v4.45Z"/>
    <path class="cls-5" d="m28.9,71.4c-1.69,0-2.68,1.15-2.68,3.33s.99,3.33,2.68,3.33,2.68-1.15,2.68-3.33-.99-3.33-2.68-3.33Zm0,5.64c-.87,0-1.32-.75-1.32-2.32s.45-2.32,1.32-2.32,1.32.76,1.32,2.32-.46,2.32-1.32,2.32Z"/>
    <path class="cls-5" d="m33.72,71.65c-.18.51-.5.79-1.38.79h-.2v1.07h1.38v4.45h1.33v-6.45h-1.09l-.04.14Z"/>
    <path class="cls-5" d="m38.4,77.95v-6.45h-1.09l-.04.14c-.18.51-.5.79-1.38.79h-.2v1.07h1.38v4.45h1.33Z"/>
    <path class="cls-5" d="m39.7,72.41c-.08,0-.15.02-.25.02h-.2v1.07h1.38v4.45h1.33v-3.2c-.79-.75-1.55-1.52-2.26-2.34Z"/>
    <path class="cls-5" d="m45.71,78.05c.12,0,.23-.02.34-.03-1.01-.68-1.99-1.39-2.91-2.17.3,1.44,1.2,2.21,2.56,2.21Z"/>
    <path class="cls-5" d="m61.37,77.95v-.03s-.03.02-.04.03h.04Z"/>
    <path class="cls-5" d="m66.45,74.73c0,1.56-.46,2.32-1.32,2.32-.59,0-.98-.35-1.18-1.05-.34.29-.7.56-1.05.83.45.81,1.21,1.23,2.22,1.23,1.69,0,2.68-1.15,2.68-3.33,0-.85-.16-1.54-.44-2.07-.32.37-.66.72-1,1.07.05.29.08.62.08,1Z"/>
    <path class="cls-5" d="m69.95,71.65c-.18.51-.5.79-1.38.79h-.2v1.07h1.38v4.45h1.33v-6.45h-1.09l-.04.14Z"/>
    <path class="cls-5" d="m74.64,77.95v-6.45h-1.09l-.04.14c-.18.51-.5.79-1.38.79h-.2v1.07h1.38v4.45h1.33Z"/>
    <path class="cls-5" d="m78.19,77.95v-6.45h-1.09l-.04.14c-.18.51-.5.79-1.38.79h-.2v1.07h1.38v4.45h1.33Z"/>
    <path class="cls-5" d="m81.94,71.4c-1.69,0-2.68,1.15-2.68,3.33s.99,3.33,2.68,3.33,2.68-1.15,2.68-3.33-.99-3.33-2.68-3.33Zm0,5.64c-.87,0-1.32-.75-1.32-2.32s.45-2.32,1.32-2.32,1.32.76,1.32,2.32-.46,2.32-1.32,2.32Z"/>
    <path class="cls-5" d="m86.57,77.95h1.33v-6.45h-1.09l-.04.14c-.18.51-.5.79-1.38.79h-.2v1.07h1.38v4.45Z"/>
    <path class="cls-5" d="m91.65,71.4c-1.69,0-2.68,1.15-2.68,3.33s.99,3.33,2.68,3.33,2.68-1.15,2.68-3.33-.99-3.33-2.68-3.33Zm0,5.64c-.87,0-1.32-.75-1.32-2.32s.45-2.32,1.32-2.32,1.32.76,1.32,2.32-.46,2.32-1.32,2.32Z"/>
    <path class="cls-5" d="m18.32,83.2c0-2.17-.99-3.33-2.68-3.33s-2.68,1.15-2.68,3.33.99,3.33,2.68,3.33,2.68-1.15,2.68-3.33Zm-2.68,2.32c-.87,0-1.32-.75-1.32-2.32s.45-2.32,1.32-2.32,1.32.76,1.32,2.32-.46,2.32-1.32,2.32Z"/>
    <path class="cls-5" d="m21.59,86.43v-6.45h-1.09l-.04.14c-.18.51-.5.79-1.38.79h-.2v1.07h1.38v4.45h1.33Z"/>
    <path class="cls-5" d="m28.03,83.2c0-2.17-.99-3.33-2.68-3.33s-2.68,1.15-2.68,3.33.99,3.33,2.68,3.33,2.68-1.15,2.68-3.33Zm-2.68,2.32c-.87,0-1.32-.75-1.32-2.32s.45-2.32,1.32-2.32,1.32.76,1.32,2.32-.46,2.32-1.32,2.32Z"/>
    <path class="cls-5" d="m31.3,86.43v-6.45h-1.09l-.04.14c-.18.51-.5.79-1.38.79h-.2v1.07h1.38v4.45h1.33Z"/>
    <path class="cls-5" d="m33.72,80.12c-.18.51-.5.79-1.38.79h-.2v1.07h1.38v4.45h1.33v-6.45h-1.09l-.04.14Z"/>
    <path class="cls-5" d="m41.29,83.2c0-2.17-.99-3.33-2.68-3.33s-2.68,1.15-2.68,3.33.99,3.33,2.68,3.33,2.68-1.15,2.68-3.33Zm-2.68,2.32c-.87,0-1.32-.75-1.32-2.32s.45-2.32,1.32-2.32,1.32.76,1.32,2.32-.46,2.32-1.32,2.32Z"/>
    <path class="cls-5" d="m44.56,86.43v-6.45h-1.09l-.04.14c-.18.51-.5.79-1.38.79h-.2v1.07h1.38v4.45h1.33Z"/>
    <path class="cls-5" d="m48.11,86.43v-6.45h-1.09l-.04.14c-.18.51-.5.79-1.38.79h-.2v1.07h1.38v4.45h1.33Z"/>
    <path class="cls-5" d="m52.85,81.46c.23.39.34.97.34,1.75,0,1.56-.46,2.32-1.32,2.32s-1.32-.75-1.32-2.32c0-1.31.32-2.05.95-2.25-.42-.17-.83-.37-1.24-.57-.68.53-1.06,1.48-1.06,2.82,0,2.18.99,3.33,2.68,3.33s2.68-1.15,2.68-3.33c0-.66-.1-1.22-.28-1.68-.21.07-.42.17-.63.24-.27-.09-.53-.2-.79-.3Z"/>
    <path class="cls-5" d="m55.11,81.98h1.38v4.45h1.33v-6.41c-.88.44-1.79.83-2.71,1.19v.78Z"/>
    <path class="cls-5" d="m64.26,83.2c0-2.17-.99-3.33-2.68-3.33s-2.68,1.15-2.68,3.33.99,3.33,2.68,3.33,2.68-1.15,2.68-3.33Zm-2.68,2.32c-.87,0-1.32-.75-1.32-2.32s.45-2.32,1.32-2.32,1.32.76,1.32,2.32-.46,2.32-1.32,2.32Z"/>
    <path class="cls-5" d="m67.53,86.43v-6.45h-1.09l-.04.14c-.18.51-.5.79-1.38.79h-.2v1.07h1.38v4.45h1.33Z"/>
    <path class="cls-5" d="m69.95,80.12c-.18.51-.5.79-1.38.79h-.2v1.07h1.38v4.45h1.33v-6.45h-1.09l-.04.14Z"/>
    <path class="cls-5" d="m77.52,83.2c0-2.17-.99-3.33-2.68-3.33s-2.68,1.15-2.68,3.33.99,3.33,2.68,3.33,2.68-1.15,2.68-3.33Zm-2.68,2.32c-.87,0-1.32-.75-1.32-2.32s.45-2.32,1.32-2.32,1.32.76,1.32,2.32-.46,2.32-1.32,2.32Z"/>
    <path class="cls-5" d="m80.79,86.43v-6.45h-1.09l-.04.14c-.18.51-.5.79-1.38.79h-.2v1.07h1.38v4.45h1.33Z"/>
    <path class="cls-5" d="m84.34,86.43v-6.45h-1.09l-.04.14c-.18.51-.5.79-1.38.79h-.2v1.07h1.38v4.45h1.33Z"/>
    <path class="cls-5" d="m90.78,83.2c0-2.17-.99-3.33-2.68-3.33s-2.68,1.15-2.68,3.33.99,3.33,2.68,3.33,2.68-1.15,2.68-3.33Zm-2.68,2.32c-.87,0-1.32-.75-1.32-2.32s.45-2.32,1.32-2.32,1.32.76,1.32,2.32-.46,2.32-1.32,2.32Z"/>
    <path class="cls-5" d="m94.05,86.43v-6.45h-1.09l-.04.14c-.18.51-.5.79-1.38.79h-.2v1.07h1.38v4.45h1.33Z"/>
    <path class="cls-5" d="m14.31,88.6c-.18.51-.5.79-1.38.79h-.2v1.07h1.38v4.45h1.33v-6.45h-1.09l-.04.14Z"/>
    <path class="cls-5" d="m19.19,88.36c-1.69,0-2.68,1.15-2.68,3.33s.99,3.33,2.68,3.33,2.68-1.15,2.68-3.33-.99-3.33-2.68-3.33Zm0,5.64c-.87,0-1.32-.75-1.32-2.32s.45-2.32,1.32-2.32,1.32.76,1.32,2.32-.46,2.32-1.32,2.32Z"/>
    <path class="cls-5" d="m24.01,88.6c-.18.51-.5.79-1.38.79h-.2v1.07h1.38v4.45h1.33v-6.45h-1.09l-.04.14Z"/>
    <path class="cls-5" d="m28.9,88.36c-1.69,0-2.68,1.15-2.68,3.33s.99,3.33,2.68,3.33,2.68-1.15,2.68-3.33-.99-3.33-2.68-3.33Zm0,5.64c-.87,0-1.32-.75-1.32-2.32s.45-2.32,1.32-2.32,1.32.76,1.32,2.32-.46,2.32-1.32,2.32Z"/>
    <path class="cls-5" d="m33.72,88.6c-.18.51-.5.79-1.38.79h-.2v1.07h1.38v4.45h1.33v-6.45h-1.09l-.04.14Z"/>
    <path class="cls-5" d="m37.28,88.6c-.18.51-.5.79-1.38.79h-.2v1.07h1.38v4.45h1.33v-6.45h-1.09l-.04.14Z"/>
    <path class="cls-5" d="m40.83,88.6c-.18.51-.5.79-1.38.79h-.2v1.07h1.38v4.45h1.33v-6.45h-1.09l-.04.14Z"/>
    <path class="cls-5" d="m45.71,88.36c-1.69,0-2.68,1.15-2.68,3.33s.99,3.33,2.68,3.33,2.68-1.15,2.68-3.33-.99-3.33-2.68-3.33Zm0,5.64c-.87,0-1.32-.75-1.32-2.32s.45-2.32,1.32-2.32,1.32.76,1.32,2.32-.46,2.32-1.32,2.32Z"/>
    <path class="cls-5" d="m50.54,88.6c-.18.51-.5.79-1.38.79h-.2v1.07h1.38v4.45h1.33v-6.45h-1.09l-.04.14Z"/>
    <path class="cls-5" d="m55.42,88.36c-1.69,0-2.68,1.15-2.68,3.33s.99,3.33,2.68,3.33,2.68-1.15,2.68-3.33-.99-3.33-2.68-3.33Zm0,5.64c-.87,0-1.32-.75-1.32-2.32s.45-2.32,1.32-2.32,1.32.76,1.32,2.32-.46,2.32-1.32,2.32Z"/>
    <path class="cls-5" d="m60.25,88.6c-.18.51-.5.79-1.38.79h-.2v1.07h1.38v4.45h1.33v-6.45h-1.09l-.04.14Z"/>
    <path class="cls-5" d="m65.13,88.36c-1.69,0-2.68,1.15-2.68,3.33s.99,3.33,2.68,3.33,2.68-1.15,2.68-3.33-.99-3.33-2.68-3.33Zm0,5.64c-.87,0-1.32-.75-1.32-2.32s.45-2.32,1.32-2.32,1.32.76,1.32,2.32-.46,2.32-1.32,2.32Z"/>
    <path class="cls-5" d="m69.95,88.6c-.18.51-.5.79-1.38.79h-.2v1.07h1.38v4.45h1.33v-6.45h-1.09l-.04.14Z"/>
    <path class="cls-5" d="m73.51,88.6c-.18.51-.5.79-1.38.79h-.2v1.07h1.38v4.45h1.33v-6.45h-1.09l-.04.14Z"/>
    <path class="cls-5" d="m77.06,88.6c-.18.51-.5.79-1.38.79h-.2v1.07h1.38v4.45h1.33v-6.45h-1.09l-.04.14Z"/>
    <path class="cls-5" d="m81.94,88.36c-1.69,0-2.68,1.15-2.68,3.33s.99,3.33,2.68,3.33,2.68-1.15,2.68-3.33-.99-3.33-2.68-3.33Zm0,5.64c-.87,0-1.32-.75-1.32-2.32s.45-2.32,1.32-2.32,1.32.76,1.32,2.32-.46,2.32-1.32,2.32Z"/>
    <path class="cls-5" d="m86.77,88.6c-.18.51-.5.79-1.38.79h-.2v1.07h1.38v4.45h1.33v-6.45h-1.09l-.04.14Z"/>
    <path class="cls-5" d="m91.65,88.36c-1.69,0-2.68,1.15-2.68,3.33s.99,3.33,2.68,3.33,2.68-1.15,2.68-3.33-.99-3.33-2.68-3.33Zm0,5.64c-.87,0-1.32-.75-1.32-2.32s.45-2.32,1.32-2.32,1.32.76,1.32,2.32-.46,2.32-1.32,2.32Z"/>
    <path class="cls-3" d="m53.63,27.43c1.09.56,2.17,1.11,3.26,1.67.31.16.63.32.94.48.49.25.98.5,1.47.76.38.2.76.39,1.15.59.82.42,1.64.84,2.46,1.26.44.23.89.46,1.33.68.66.34,1.31.67,1.97,1.01.44.23.89.46,1.33.68,2,1.03,4,2.05,6,3.08.37.19.74.38,1.11.57.18.09.36.19.54.28v13.46c0,.21-.02.42-.03.62-.03,1.74-.21,3.45-.52,5.11-.21,1.12-.48,2.22-.8,3.3-.28.95-.6,1.88-.97,2.79-.18.44-.38.87-.57,1.3-.37.8-.77,1.58-1.2,2.34-.4.7-.82,1.38-1.27,2.05-.75,1.11-1.56,2.18-2.44,3.18-.32.37-.66.72-1,1.07-.77.79-1.57,1.55-2.42,2.26-.34.29-.7.56-1.05.83-.5.38-1.01.75-1.53,1.1-.01,0-.03.02-.04.03-1.12.76-2.29,1.46-3.51,2.07-.88.44-1.79.83-2.71,1.19-.28.11-.55.21-.83.31-.21.07-.42.17-.63.24-.27-.09-.53-.2-.79-.3-.45-.16-.91-.32-1.36-.51-.42-.17-.83-.37-1.24-.57-1.46-.68-2.86-1.47-4.2-2.36-1.01-.68-1.99-1.39-2.91-2.17-.41-.35-.8-.72-1.19-1.1-.79-.75-1.55-1.52-2.26-2.34-.85-.99-1.62-2.04-2.34-3.12-.49-.74-.95-1.5-1.38-2.28-.4-.73-.78-1.48-1.12-2.25-.26-.57-.49-1.15-.71-1.74-.78-2.07-1.35-4.23-1.68-6.48-.05-.35-.09-.71-.13-1.07-.13-1.16-.22-2.32-.22-3.52v-13.46l1.63-.84.14-.07,3.96-2.03,3.22-1.65,2.17-1.12,1.33-.69,1.92-.99,1.63-.84,5.51-2.84m0-2.08l-.84.43-5.51,2.84-1.63.84-1.92.99-1.33.69-2.17,1.12-3.22,1.65-3.96,2.03-.14.07-1.63.84-1,.52v14.59c0,1.13.07,2.31.23,3.72v.09c.05.35.09.7.14,1.04.34,2.32.94,4.63,1.78,6.86.26.69.51,1.29.75,1.84.36.8.76,1.6,1.19,2.39.44.8.93,1.61,1.46,2.41.84,1.26,1.65,2.34,2.48,3.31.68.79,1.44,1.57,2.39,2.48l.16.15c.35.33.71.68,1.11,1.01.89.76,1.9,1.51,3.08,2.3,1.41.94,2.9,1.79,4.44,2.5l.26.12c.35.16.7.33,1.06.48.41.17.83.32,1.24.47l.19.07c.09.03.19.07.28.11.18.07.37.14.56.21l.58.19.58-.19c.15-.05.3-.11.45-.17.07-.03.14-.06.22-.08.3-.1.59-.22.88-.33,1.05-.41,1.99-.82,2.88-1.26,1.23-.62,2.49-1.35,3.72-2.19.62-.42,1.15-.8,1.66-1.2l.07-.05c.35-.27.7-.54,1.04-.83.85-.72,1.71-1.52,2.56-2.4.31-.33.68-.71,1.05-1.13.89-1.01,1.76-2.15,2.59-3.37.47-.7.93-1.43,1.35-2.17.46-.81.89-1.64,1.27-2.48.2-.43.41-.89.61-1.38.37-.92.71-1.88,1.03-2.95.35-1.16.64-2.34.85-3.49.33-1.77.51-3.59.55-5.41,0-.07,0-.14,0-.21,0-.15.02-.3.02-.45v-14.59l-1-.52-.54-.28-1.11-.57-1.03-.53-4.97-2.55-.79-.4-.54-.28-.31-.16-1.66-.85-.62-.32-.71-.36-2.46-1.26-.57-.29-.57-.29-.42-.22-1.05-.54-.48-.24-.46-.24-3.26-1.67-.84-.43h0Z"/>
  </g>
  <path class="cls-2" d="m48.19,49.74v-2.73c.07-2.51,2.18-5.45,5.45-5.45,3.01,0,5.45,2.44,5.45,5.45v2.73"/>
  <circle class="cls-5" cx="53.7" cy="55.25" r="1.83"/>
  <path class="cls-1" d="m53.7,55.25v4.32"/>
  <path class="cls-2" d="m45.13,49.74h17.02v12.02c0,.82-.67,1.49-1.49,1.49h-14.03c-.82,0-1.49-.67-1.49-1.49v-12.02h0Z"/>
</svg>