<?xml version="1.0" encoding="UTF-8"?>
<svg id="Icons" xmlns="http://www.w3.org/2000/svg" viewBox="0 0 107.05 107.05">
  <defs>
    <style>
      .cls-1 {
        stroke: #3d3c3c;
      }

      .cls-1, .cls-2 {
        fill: none;
        stroke-miterlimit: 10;
        stroke-width: 1.85px;
      }

      .cls-2 {
        stroke: #ff462d;
      }

      .cls-3 {
        fill: #3d3c3c;
      }

      .cls-3, .cls-4 {
        stroke-width: 0px;
      }

      .cls-4 {
        fill: #ff462d;
      }
    </style>
  </defs>
  <g>
    <g>
      <rect class="cls-4" x="49.09" y="80.65" width="2.54" height="2.54" rx="1.27" ry="1.27"/>
      <rect class="cls-4" x="54.18" y="80.65" width="2.54" height="2.54" rx="1.27" ry="1.27"/>
    </g>
    <path class="cls-2" d="m37.79,72.49h30.23v13.08c0,2.6-2.11,4.71-4.71,4.71h-20.81c-2.6,0-4.71-2.11-4.71-4.71v-13.08h0Z"/>
    <g>
      <rect class="cls-4" x="54.18" y="62.32" width="2.54" height="2.54" rx="1.27" ry="1.27" transform="translate(110.9 127.18) rotate(180)"/>
      <rect class="cls-4" x="49.09" y="62.32" width="2.54" height="2.54" rx="1.27" ry="1.27" transform="translate(100.73 127.18) rotate(180)"/>
    </g>
    <path class="cls-2" d="m37.79,54.69h30.23v13.08c0,2.6-2.11,4.71-4.71,4.71h-20.81c-2.6,0-4.71-2.11-4.71-4.71v-13.08h0Z" transform="translate(105.81 127.18) rotate(180)"/>
  </g>
  <g>
    <path class="cls-3" d="m73.63,71.51h11.45c6.52,0,11.82-5.3,11.82-11.82s-5.29-11.81-11.8-11.82l-1.03.06.02-1.04c.04-.6.07-1.21.07-1.83,0-14.58-11.86-26.45-26.45-26.45-11.98,0-22.49,8.08-25.56,19.65l-.24.89-.89-.24c-1.39-.37-2.83-.56-4.27-.56-9.14,0-16.58,7.44-16.58,16.58s7.44,16.58,16.58,16.58h5.83v1.85s-5.83,0-5.83,0c-10.16,0-18.42-8.26-18.42-18.42s8.26-18.42,18.42-18.42c1.3,0,2.59.14,3.86.41,3.57-11.91,14.59-20.15,27.1-20.15,15.6,0,28.29,12.69,28.29,28.3,0,.33,0,.66-.02.99,7.12.47,12.76,6.41,12.76,13.64s-6.13,13.67-13.67,13.67h-11.45"/>
    <path class="cls-1" d="m85.05,72.44c7.04,0,12.74-5.71,12.74-12.74s-5.71-12.74-12.74-12.74c-3.52,0-6.7,1.43-9.01,3.73"/>
  </g>
</svg>