<?xml version="1.0" encoding="UTF-8"?>
<svg id="Icons" xmlns="http://www.w3.org/2000/svg" viewBox="0 0 107.05 107.05">
  <defs>
    <style>
      .cls-1 {
        stroke: #3d3c3c;
      }

      .cls-1, .cls-2 {
        fill: none;
        stroke-miterlimit: 10;
        stroke-width: 1.85px;
      }

      .cls-2 {
        stroke: #ff462d;
      }
    </style>
  </defs>
  <rect class="cls-1" x="29.15" y="29.15" width="48.75" height="48.75"/>
  <rect class="cls-2" x="42.68" y="42.68" width="21.7" height="21.7"/>
  <g>
    <g>
      <line class="cls-1" x1="36.1" y1="21" x2="36.1" y2="25.47"/>
      <line class="cls-1" x1="44.78" y1="21" x2="44.78" y2="25.47"/>
      <line class="cls-1" x1="53.46" y1="21" x2="53.46" y2="25.47"/>
      <line class="cls-1" x1="62.14" y1="21" x2="62.14" y2="25.47"/>
      <line class="cls-1" x1="70.82" y1="21" x2="70.82" y2="25.47"/>
    </g>
    <g>
      <line class="cls-1" x1="36.1" y1="81.59" x2="36.1" y2="86.05"/>
      <line class="cls-1" x1="44.78" y1="81.59" x2="44.78" y2="86.05"/>
      <line class="cls-1" x1="53.46" y1="81.59" x2="53.46" y2="86.05"/>
      <line class="cls-1" x1="62.14" y1="81.59" x2="62.14" y2="86.05"/>
      <line class="cls-1" x1="70.82" y1="81.59" x2="70.82" y2="86.05"/>
    </g>
    <g>
      <line class="cls-1" x1="25.41" y1="35.15" x2="21" y2="35.15"/>
      <line class="cls-1" x1="25.41" y1="43.95" x2="21" y2="43.95"/>
      <line class="cls-1" x1="25.41" y1="52.75" x2="21" y2="52.75"/>
      <line class="cls-1" x1="25.41" y1="61.55" x2="21" y2="61.55"/>
      <line class="cls-1" x1="25.41" y1="70.36" x2="21" y2="70.36"/>
    </g>
    <g>
      <line class="cls-1" x1="86.05" y1="35.15" x2="81.65" y2="35.15"/>
      <line class="cls-1" x1="86.05" y1="43.95" x2="81.65" y2="43.95"/>
      <line class="cls-1" x1="86.05" y1="52.75" x2="81.65" y2="52.75"/>
      <line class="cls-1" x1="86.05" y1="61.55" x2="81.65" y2="61.55"/>
      <line class="cls-1" x1="86.05" y1="70.36" x2="81.65" y2="70.36"/>
    </g>
  </g>
</svg>