<?xml version="1.0" encoding="UTF-8"?>
<svg id="Icons" xmlns="http://www.w3.org/2000/svg" viewBox="0 0 107.05 107.05">
  <defs>
    <style>
      .cls-1 {
        stroke: #3d3c3c;
      }

      .cls-1, .cls-2 {
        fill: none;
        stroke-miterlimit: 10;
        stroke-width: 1.85px;
      }

      .cls-2 {
        stroke: #ff462d;
      }
    </style>
  </defs>
  <path class="cls-1" d="m53.19,54.27h-12.5c-1.3,0-2.35,1.05-2.35,2.35,0,0,1.08,5.29,1.08,5.29.07.29.1.6.1.91,0,2.3-1.87,4.17-4.17,4.17-2.3,0-4.17-1.87-4.17-4.17,0-.31.03-.62.1-.91,0,0,1.08-5.29,1.08-5.29,0-1.3-1.05-2.35-2.35-2.35h-12.5"/>
  <path class="cls-1" d="m53.51,53.84v12.5c0,1.3,1.05,2.35,2.35,2.35,0,0,5.29-1.08,5.29-1.08.29-.07.6-.1.91-.1,2.3,0,4.17,1.87,4.17,4.17,0,2.3-1.87,4.17-4.17,4.17-.31,0-.62-.03-.91-.1,0,0-5.29-1.08-5.29-1.08-1.3,0-2.35,1.05-2.35,2.35v12.5"/>
  <path class="cls-2" d="m53.86,54.15h12.5c1.3,0,2.35-1.36,2.35-2.66,0,0-1.08-5.29-1.08-5.29-.07-.29-.1-.6-.1-.91,0-2.3,1.87-4.17,4.17-4.17,2.3,0,4.17,1.87,4.17,4.17,0,.31-.03.62-.1.91,0,0-1.08,5.29-1.08,5.29,0,1.3,1.05,2.35,2.35,2.35h12.5"/>
  <path class="cls-2" d="m53.55,55.84v-13.77c0-1.3-1.05-2.35-2.35-2.35,0,0-5.29,1.08-5.29,1.08-.29.07-.6.1-.91.1-2.3,0-4.17-1.87-4.17-4.17,0-2.3,1.87-4.17,4.17-4.17.31,0,.62.03.91.1,0,0,5.29,1.08,5.29,1.08,1.3,0,2.35-1.05,2.35-2.35v-13.85"/>
  <polygon class="cls-1" points="89.5 89.52 17.51 89.52 17.51 17.53 53.51 17.53 89.5 17.53 89.5 89.52"/>
  <polyline class="cls-2" points="52.82 17.53 89.5 17.53 89.5 55.42"/>
</svg>