<?xml version="1.0" encoding="UTF-8"?>
<svg id="Icons" xmlns="http://www.w3.org/2000/svg" viewBox="0 0 107.05 107.05">
  <defs>
    <style>
      .cls-1 {
        stroke: #3d3c3c;
      }

      .cls-1, .cls-2 {
        fill: none;
        stroke-miterlimit: 10;
        stroke-width: 1.85px;
      }

      .cls-2 {
        stroke: #ff462d;
      }

      .cls-3 {
        fill: #ff462d;
        stroke-width: 0px;
      }
    </style>
  </defs>
  <path class="cls-2" d="m39.72,50.41h27.79v12.95c0,2.75-2.23,4.98-4.98,4.98h-17.83c-2.75,0-4.98-2.23-4.98-4.98v-12.95h0Z"/>
  <path class="cls-2" d="m44.71,45.66v-4.46c.12-4.1,3.56-8.89,8.89-8.89,4.91,0,8.89,3.98,8.89,8.89v4.46"/>
  <circle class="cls-3" cx="53.52" cy="57.82" r="1.91"/>
  <path class="cls-2" d="m53.52,58.78v4.06"/>
  <g>
    <path class="cls-1" d="m86.95,49.44v-20.9c-11.15-5.73-22.3-11.45-33.45-17.18-11.13,5.73-22.27,11.45-33.4,17.18v20.9"/>
    <path class="cls-1" d="m20.1,49.44c0,21.56,14.01,39.83,33.42,46.25,19.41-6.41,33.42-24.69,33.42-46.25"/>
  </g>
</svg>