<?xml version="1.0" encoding="UTF-8"?>
<svg id="Icons" xmlns="http://www.w3.org/2000/svg" viewBox="0 0 107.05 107.05">
  <defs>
    <style>
      .cls-1 {
        stroke: #3d3c3c;
      }

      .cls-1, .cls-2 {
        fill: none;
        stroke-miterlimit: 10;
        stroke-width: 1.85px;
      }

      .cls-2 {
        stroke: #ff462d;
      }
    </style>
  </defs>
  <path class="cls-1" d="m10.53,97.62v-11.4c0-5.08,4.12-9.19,9.19-9.19h4.42c5.08,0,9.19,4.12,9.19,9.19v5.95"/>
  <polyline class="cls-1" points="21.93 87.33 21.93 96.39 34.02 96.39"/>
  <circle class="cls-2" cx="21.93" cy="65.02" r="6.95"/>
  <path class="cls-1" d="m96.52,97.62v-11.4c0-5.08-4.12-9.19-9.19-9.19h-4.42c-5.08,0-9.19,4.12-9.19,9.19v5.95"/>
  <polyline class="cls-1" points="85.12 87.33 85.12 96.39 73.04 96.39"/>
  <circle class="cls-2" cx="85.12" cy="65.02" r="6.95"/>
  <line class="cls-1" x1="38.96" y1="96.39" x2="68.29" y2="96.39"/>
  <path class="cls-1" d="m63.42,28.76c0-6.42-5.56-11.54-12.12-10.81-5.06.56-9.12,4.69-9.59,9.76-.43,4.54,1.95,8.58,5.59,10.59.63.34,1.03.98,1.03,1.7,0,.99,0,2.42,0,3.62,0,2.3,1.78,4.31,4.08,4.38s4.34-1.84,4.34-4.21v-3.78c0-.72.41-1.37,1.04-1.72,3.36-1.85,5.63-5.42,5.63-9.53Z"/>
  <line class="cls-1" x1="48.33" y1="41.32" x2="56.75" y2="41.32"/>
  <line class="cls-1" x1="52.66" y1="9.43" x2="52.66" y2="13.84"/>
  <line class="cls-1" x1="38.15" y1="28.36" x2="33.73" y2="28.36"/>
  <line class="cls-1" x1="71.88" y1="28.36" x2="67.47" y2="28.36"/>
  <line class="cls-1" x1="66.25" y1="14.76" x2="63.13" y2="17.88"/>
  <line class="cls-1" x1="39.65" y1="14.76" x2="42.77" y2="17.88"/>
</svg>