<?xml version="1.0" encoding="UTF-8"?>
<svg id="Icons" xmlns="http://www.w3.org/2000/svg" viewBox="0 0 107.05 107.05">
  <defs>
    <style>
      .cls-1 {
        stroke: #3d3c3c;
      }

      .cls-1, .cls-2 {
        fill: none;
        stroke-miterlimit: 10;
        stroke-width: 1.85px;
      }

      .cls-2 {
        stroke: #ff462d;
      }

      .cls-3 {
        fill: #3d3c3c;
        stroke-width: 0px;
      }
    </style>
  </defs>
  <path class="cls-1" d="m49.04,78.76v9.41"/>
  <path class="cls-1" d="m58.01,79.03v9.13"/>
  <path class="cls-1" d="m32.92,88.17h40.5"/>
  <path class="cls-3" d="m86.65,79.78H20.41c-4.33,0-7.85-3.52-7.85-7.85V26.04l21.23-.09-1.86,1.86-17.53.07v44.05c0,3.31,2.69,6,6,6h66.24c3.31,0,6-2.69,6-6V27.89h-16.01l-1.86-1.85h19.71v45.89c0,4.33-3.52,7.85-7.85,7.85Z"/>
  <g>
    <path class="cls-1" d="m75,58.42c5.08,0,9.2-4.12,9.2-9.2s-4.12-9.2-9.2-9.2c-2.54,0-4.84,1.03-6.51,2.7"/>
    <g>
      <path class="cls-1" d="m68,58.42h6.96c5.08,0,9.2-4.12,9.2-9.2s-4.12-9.2-9.2-9.2c-.02,0-.03,0-.05,0,.03-.45.05-.9.05-1.36,0-10.92-8.85-19.77-19.77-19.77-9.16,0-16.86,6.23-19.1,14.68-1.04-.28-2.13-.43-3.26-.43-6.98,0-12.64,5.66-12.64,12.64s5.66,12.64,12.64,12.64h5.51"/>
      <g>
        <circle class="cls-2" cx="53.17" cy="59.39" r="9.53"/>
        <line class="cls-2" x1="53.17" y1="49.87" x2="53.17" y2="45.67"/>
        <line class="cls-2" x1="53.17" y1="73.01" x2="53.17" y2="68.92"/>
        <line class="cls-2" x1="45.28" y1="54.42" x2="41.53" y2="52.06"/>
        <line class="cls-2" x1="64.82" y1="66.73" x2="61.07" y2="64.37"/>
        <line class="cls-2" x1="61.23" y1="54.32" x2="64.82" y2="52.06"/>
        <line class="cls-2" x1="41.53" y1="66.73" x2="45.28" y2="64.37"/>
      </g>
    </g>
  </g>
</svg>