<?xml version="1.0" encoding="UTF-8"?>
<svg id="Icons" xmlns="http://www.w3.org/2000/svg" viewBox="0 0 107.05 107.05">
  <defs>
    <style>
      .cls-1 {
        stroke: #3d3c3c;
      }

      .cls-1, .cls-2 {
        fill: none;
        stroke-miterlimit: 10;
        stroke-width: 1.85px;
      }

      .cls-2 {
        stroke: #ff462d;
      }

      .cls-3 {
        fill: #3d3c3c;
        stroke-width: 0px;
      }
    </style>
  </defs>
  <polyline class="cls-2" points="59.91 19.2 53.53 19.2 53.53 87.89 59.91 87.89"/>
  <line class="cls-2" x1="53.53" y1="53.54" x2="59.91" y2="53.54"/>
  <line class="cls-2" x1="47.15" y1="72" x2="53.53" y2="72"/>
  <line class="cls-2" x1="47.15" y1="38.06" x2="53.53" y2="38.06"/>
  <line class="cls-1" x1="42.78" y1="46.5" x2="7.77" y2="46.5"/>
  <line class="cls-1" x1="7.77" y1="63.5" x2="42.78" y2="63.5"/>
  <g>
    <rect class="cls-3" x="17.92" y="36.59" width="2.94" height="2.94" rx="1.47" ry="1.47"/>
    <rect class="cls-3" x="23.81" y="36.59" width="2.94" height="2.94" rx="1.47" ry="1.47"/>
    <rect class="cls-3" x="29.69" y="36.59" width="2.94" height="2.94" rx="1.47" ry="1.47"/>
  </g>
  <g>
    <rect class="cls-3" x="17.92" y="53.53" width="2.94" height="2.94" rx="1.47" ry="1.47"/>
    <rect class="cls-3" x="23.81" y="53.53" width="2.94" height="2.94" rx="1.47" ry="1.47"/>
    <rect class="cls-3" x="29.69" y="53.53" width="2.94" height="2.94" rx="1.47" ry="1.47"/>
  </g>
  <g>
    <rect class="cls-3" x="77.36" y="17.73" width="2.94" height="2.94" rx="1.47" ry="1.47"/>
    <rect class="cls-3" x="83.25" y="17.73" width="2.94" height="2.94" rx="1.47" ry="1.47"/>
  </g>
  <g>
    <rect class="cls-3" x="77.36" y="52.06" width="2.94" height="2.94" rx="1.47" ry="1.47"/>
    <rect class="cls-3" x="83.25" y="52.06" width="2.94" height="2.94" rx="1.47" ry="1.47"/>
  </g>
  <g>
    <rect class="cls-3" x="77.36" y="86.38" width="2.94" height="2.94" rx="1.47" ry="1.47"/>
    <rect class="cls-3" x="83.25" y="86.38" width="2.94" height="2.94" rx="1.47" ry="1.47"/>
  </g>
  <g>
    <rect class="cls-3" x="17.92" y="70.53" width="2.94" height="2.94" rx="1.47" ry="1.47"/>
    <rect class="cls-3" x="23.81" y="70.53" width="2.94" height="2.94" rx="1.47" ry="1.47"/>
    <rect class="cls-3" x="29.69" y="70.53" width="2.94" height="2.94" rx="1.47" ry="1.47"/>
  </g>
  <path class="cls-1" d="m7.77,29.5h35v44.79c0,3.43-2.78,6.21-6.21,6.21H13.99c-3.43,0-6.21-2.78-6.21-6.21V29.5h0Z"/>
  <path class="cls-1" d="m64.28,8.9h35v15.89c0,2.6-2.11,4.71-4.71,4.71h-25.58c-2.6,0-4.71-2.11-4.71-4.71v-15.89h0Z"/>
  <path class="cls-1" d="m64.28,43.23h35v15.89c0,2.6-2.11,4.71-4.71,4.71h-25.58c-2.6,0-4.71-2.11-4.71-4.71v-15.89h0Z"/>
  <path class="cls-1" d="m64.28,77.56h35v15.89c0,2.6-2.11,4.71-4.71,4.71h-25.58c-2.6,0-4.71-2.11-4.71-4.71v-15.89h0Z"/>
</svg>